<svg width="246" height="148" viewBox="0 0 246 148" fill="none" xmlns="http://www.w3.org/2000/svg">
<rect width="245.634" height="147.252" fill="white"/>
<path d="M26.7582 38.5338V30.1938H23.9232V28.7238H31.3332V30.1938H28.4982V38.5338H26.7582ZM34.9123 38.7138C34.3023 38.7138 33.7323 38.5638 33.2023 38.2638C32.6723 37.9538 32.2423 37.5138 31.9123 36.9438C31.5823 36.3638 31.4173 35.6688 31.4173 34.8588C31.4173 34.0388 31.5823 33.3438 31.9123 32.7738C32.2423 32.1938 32.6723 31.7538 33.2023 31.4538C33.7323 31.1438 34.3023 30.9888 34.9123 30.9888C35.5323 30.9888 36.1073 31.1438 36.6373 31.4538C37.1673 31.7538 37.5973 32.1938 37.9273 32.7738C38.2573 33.3438 38.4223 34.0388 38.4223 34.8588C38.4223 35.6688 38.2573 36.3638 37.9273 36.9438C37.5973 37.5138 37.1673 37.9538 36.6373 38.2638C36.1073 38.5638 35.5323 38.7138 34.9123 38.7138ZM34.9123 37.3038C35.4523 37.3038 35.8773 37.0788 36.1873 36.6288C36.4973 36.1788 36.6523 35.5888 36.6523 34.8588C36.6523 34.1188 36.4973 33.5238 36.1873 33.0738C35.8773 32.6238 35.4523 32.3988 34.9123 32.3988C34.3723 32.3988 33.9473 32.6238 33.6373 33.0738C33.3373 33.5238 33.1873 34.1188 33.1873 34.8588C33.1873 35.5888 33.3373 36.1788 33.6373 36.6288C33.9473 37.0788 34.3723 37.3038 34.9123 37.3038ZM42.8598 38.7138C41.9398 38.7138 41.2048 38.3738 40.6548 37.6938C40.1048 37.0138 39.8298 36.0688 39.8298 34.8588C39.8298 34.0588 39.9748 33.3688 40.2648 32.7888C40.5648 32.2088 40.9548 31.7638 41.4348 31.4538C41.9148 31.1438 42.4198 30.9888 42.9498 30.9888C43.3698 30.9888 43.7248 31.0638 44.0148 31.2138C44.3148 31.3538 44.6048 31.5488 44.8848 31.7988L44.8248 30.6138V27.9438H46.5498V38.5338H45.1248L45.0048 37.7388H44.9448C44.6748 38.0088 44.3598 38.2388 43.9998 38.4288C43.6398 38.6188 43.2598 38.7138 42.8598 38.7138ZM43.2798 37.2888C43.8298 37.2888 44.3448 37.0138 44.8248 36.4638V33.0288C44.5748 32.7988 44.3248 32.6388 44.0748 32.5488C43.8248 32.4588 43.5748 32.4138 43.3248 32.4138C42.8548 32.4138 42.4498 32.6288 42.1098 33.0588C41.7798 33.4788 41.6148 34.0738 41.6148 34.8438C41.6148 35.6338 41.7598 36.2388 42.0498 36.6588C42.3398 37.0788 42.7498 37.2888 43.2798 37.2888ZM50.6816 38.7138C50.0416 38.7138 49.5166 38.5138 49.1066 38.1138C48.7066 37.7138 48.5066 37.1938 48.5066 36.5538C48.5066 35.7638 48.8516 35.1538 49.5416 34.7238C50.2316 34.2838 51.3316 33.9838 52.8416 33.8238C52.8316 33.4338 52.7266 33.0988 52.5266 32.8188C52.3366 32.5288 51.9916 32.3838 51.4916 32.3838C51.1316 32.3838 50.7766 32.4538 50.4266 32.5938C50.0866 32.7338 49.7516 32.9038 49.4216 33.1038L48.7916 31.9488C49.2016 31.6888 49.6616 31.4638 50.1716 31.2738C50.6916 31.0838 51.2416 30.9888 51.8216 30.9888C52.7416 30.9888 53.4266 31.2638 53.8766 31.8138C54.3366 32.3538 54.5666 33.1388 54.5666 34.1688V38.5338H53.1416L53.0216 37.7238H52.9616C52.6316 38.0038 52.2766 38.2388 51.8966 38.4288C51.5266 38.6188 51.1216 38.7138 50.6816 38.7138ZM51.2366 37.3638C51.5366 37.3638 51.8066 37.2938 52.0466 37.1538C52.2966 37.0038 52.5616 36.8038 52.8416 36.5538V34.9038C51.8416 35.0338 51.1466 35.2288 50.7566 35.4888C50.3666 35.7388 50.1716 36.0488 50.1716 36.4188C50.1716 36.7488 50.2716 36.9888 50.4716 37.1388C50.6716 37.2888 50.9266 37.3638 51.2366 37.3638ZM57.2759 41.5638C57.0759 41.5638 56.9009 41.5488 56.7509 41.5188C56.6009 41.4888 56.4559 41.4538 56.3159 41.4138L56.6309 40.0638C56.7009 40.0838 56.7809 40.1038 56.8709 40.1238C56.9709 40.1538 57.0659 40.1688 57.1559 40.1688C57.5459 40.1688 57.8559 40.0488 58.0859 39.8088C58.3259 39.5788 58.5059 39.2788 58.6259 38.9088L58.7609 38.4438L55.8659 31.1688H57.6209L58.8959 34.7838C59.0059 35.1038 59.1109 35.4438 59.2109 35.8038C59.3209 36.1538 59.4309 36.5038 59.5409 36.8538H59.6009C59.6909 36.5138 59.7809 36.1688 59.8709 35.8188C59.9709 35.4588 60.0659 35.1138 60.1559 34.7838L61.2659 31.1688H62.9309L60.2609 38.8638C59.9509 39.6938 59.5759 40.3488 59.1359 40.8288C58.6959 41.3188 58.0759 41.5638 57.2759 41.5638ZM64.6877 32.6688L64.2677 31.9038C64.6777 31.6638 64.9877 31.3988 65.1977 31.1088C65.4077 30.8088 65.5127 30.4438 65.5127 30.0138C65.4827 30.0238 65.4377 30.0288 65.3777 30.0288C65.1177 30.0288 64.8877 29.9488 64.6877 29.7888C64.4977 29.6188 64.4027 29.3888 64.4027 29.0988C64.4027 28.7788 64.4927 28.5288 64.6727 28.3488C64.8627 28.1588 65.0977 28.0638 65.3777 28.0638C65.7577 28.0638 66.0477 28.2088 66.2477 28.4988C66.4577 28.7888 66.5627 29.1988 66.5627 29.7288C66.5627 31.0388 65.9377 32.0188 64.6877 32.6688ZM70.0637 38.7138C69.5637 38.7138 69.0637 38.6188 68.5637 38.4288C68.0637 38.2288 67.6337 37.9838 67.2737 37.6938L68.0837 36.5838C68.4137 36.8338 68.7437 37.0338 69.0737 37.1838C69.4037 37.3338 69.7537 37.4088 70.1237 37.4088C70.5237 37.4088 70.8187 37.3238 71.0087 37.1538C71.1987 36.9838 71.2937 36.7738 71.2937 36.5238C71.2937 36.3138 71.2137 36.1438 71.0537 36.0138C70.9037 35.8738 70.7087 35.7538 70.4687 35.6538C70.2287 35.5438 69.9787 35.4388 69.7187 35.3388C69.3987 35.2188 69.0787 35.0738 68.7587 34.9038C68.4487 34.7238 68.1937 34.4988 67.9937 34.2288C67.7937 33.9488 67.6937 33.6038 67.6937 33.1938C67.6937 32.5438 67.9337 32.0138 68.4137 31.6038C68.8937 31.1938 69.5437 30.9888 70.3637 30.9888C70.8837 30.9888 71.3487 31.0788 71.7587 31.2588C72.1687 31.4388 72.5237 31.6438 72.8237 31.8738L72.0287 32.9238C71.7687 32.7338 71.5037 32.5838 71.2337 32.4738C70.9737 32.3538 70.6987 32.2938 70.4087 32.2938C70.0387 32.2938 69.7637 32.3738 69.5837 32.5338C69.4037 32.6838 69.3137 32.8738 69.3137 33.1038C69.3137 33.3938 69.4637 33.6138 69.7637 33.7638C70.0637 33.9138 70.4137 34.0588 70.8137 34.1988C71.1537 34.3188 71.4837 34.4688 71.8037 34.6488C72.1237 34.8188 72.3887 35.0438 72.5987 35.3238C72.8187 35.6038 72.9287 35.9738 72.9287 36.4338C72.9287 37.0638 72.6837 37.6038 72.1937 38.0538C71.7037 38.4938 70.9937 38.7138 70.0637 38.7138ZM79.5566 38.7138C78.9166 38.7138 78.3916 38.5138 77.9816 38.1138C77.5816 37.7138 77.3816 37.1938 77.3816 36.5538C77.3816 35.7638 77.7266 35.1538 78.4166 34.7238C79.1066 34.2838 80.2066 33.9838 81.7166 33.8238C81.7066 33.4338 81.6016 33.0988 81.4016 32.8188C81.2116 32.5288 80.8666 32.3838 80.3666 32.3838C80.0066 32.3838 79.6516 32.4538 79.3016 32.5938C78.9616 32.7338 78.6266 32.9038 78.2966 33.1038L77.6666 31.9488C78.0766 31.6888 78.5366 31.4638 79.0466 31.2738C79.5666 31.0838 80.1166 30.9888 80.6966 30.9888C81.6166 30.9888 82.3016 31.2638 82.7516 31.8138C83.2116 32.3538 83.4416 33.1388 83.4416 34.1688V38.5338H82.0166L81.8966 37.7238H81.8366C81.5066 38.0038 81.1516 38.2388 80.7716 38.4288C80.4016 38.6188 79.9966 38.7138 79.5566 38.7138ZM80.1116 37.3638C80.4116 37.3638 80.6816 37.2938 80.9216 37.1538C81.1716 37.0038 81.4366 36.8038 81.7166 36.5538V34.9038C80.7166 35.0338 80.0216 35.2288 79.6316 35.4888C79.2416 35.7388 79.0466 36.0488 79.0466 36.4188C79.0466 36.7488 79.1466 36.9888 79.3466 37.1388C79.5466 37.2888 79.8016 37.3638 80.1116 37.3638ZM88.7309 38.7138C88.0609 38.7138 87.4559 38.5638 86.9159 38.2638C86.3859 37.9538 85.9609 37.5138 85.6409 36.9438C85.3309 36.3638 85.1759 35.6688 85.1759 34.8588C85.1759 34.0388 85.3459 33.3438 85.6859 32.7738C86.0259 32.1938 86.4759 31.7538 87.0359 31.4538C87.6059 31.1438 88.2159 30.9888 88.8659 30.9888C89.3359 30.9888 89.7459 31.0688 90.0959 31.2288C90.4459 31.3888 90.7559 31.5838 91.0259 31.8138L90.1859 32.9388C89.9959 32.7688 89.8009 32.6388 89.6009 32.5488C89.4009 32.4488 89.1859 32.3988 88.9559 32.3988C88.3659 32.3988 87.8809 32.6238 87.5009 33.0738C87.1309 33.5238 86.9459 34.1188 86.9459 34.8588C86.9459 35.5888 87.1259 36.1788 87.4859 36.6288C87.8559 37.0788 88.3309 37.3038 88.9109 37.3038C89.2009 37.3038 89.4709 37.2438 89.7209 37.1238C89.9809 36.9938 90.2159 36.8438 90.4259 36.6738L91.1309 37.8138C90.7909 38.1138 90.4109 38.3388 89.9909 38.4888C89.5709 38.6388 89.1509 38.7138 88.7309 38.7138ZM95.1832 38.7138C94.3332 38.7138 93.7282 38.4688 93.3682 37.9788C93.0182 37.4788 92.8432 36.8338 92.8432 36.0438V32.5338H91.7932V31.2438L92.9332 31.1688L93.1432 29.1588H94.5832V31.1688H96.4582V32.5338H94.5832V36.0438C94.5832 36.9038 94.9282 37.3338 95.6182 37.3338C95.7482 37.3338 95.8832 37.3188 96.0232 37.2888C96.1632 37.2488 96.2832 37.2088 96.3832 37.1688L96.6832 38.4438C96.4832 38.5138 96.2532 38.5738 95.9932 38.6238C95.7432 38.6838 95.4732 38.7138 95.1832 38.7138ZM98.1581 38.5338V31.1688H99.8831V38.5338H98.1581ZM99.0281 29.8788C98.7181 29.8788 98.4681 29.7888 98.2781 29.6088C98.0881 29.4288 97.9931 29.1888 97.9931 28.8888C97.9931 28.5988 98.0881 28.3638 98.2781 28.1838C98.4681 28.0038 98.7181 27.9138 99.0281 27.9138C99.3381 27.9138 99.5881 28.0038 99.7781 28.1838C99.9681 28.3638 100.063 28.5988 100.063 28.8888C100.063 29.1888 99.9681 29.4288 99.7781 29.6088C99.5881 29.7888 99.3381 29.8788 99.0281 29.8788ZM103.884 38.5338L101.319 31.1688H103.074L104.244 34.9938C104.344 35.3538 104.444 35.7188 104.544 36.0888C104.654 36.4588 104.759 36.8338 104.859 37.2138H104.919C105.029 36.8338 105.134 36.4588 105.234 36.0888C105.344 35.7188 105.449 35.3538 105.549 34.9938L106.719 31.1688H108.384L105.879 38.5338H103.884ZM109.811 38.5338V31.1688H111.536V38.5338H109.811ZM110.681 29.8788C110.371 29.8788 110.121 29.7888 109.931 29.6088C109.741 29.4288 109.646 29.1888 109.646 28.8888C109.646 28.5988 109.741 28.3638 109.931 28.1838C110.121 28.0038 110.371 27.9138 110.681 27.9138C110.991 27.9138 111.241 28.0038 111.431 28.1838C111.621 28.3638 111.716 28.5988 111.716 28.8888C111.716 29.1888 111.621 29.4288 111.431 29.6088C111.241 29.7888 110.991 29.8788 110.681 29.8788ZM116.481 38.7138C115.631 38.7138 115.026 38.4688 114.666 37.9788C114.316 37.4788 114.141 36.8338 114.141 36.0438V32.5338H113.091V31.2438L114.231 31.1688L114.441 29.1588H115.881V31.1688H117.756V32.5338H115.881V36.0438C115.881 36.9038 116.226 37.3338 116.916 37.3338C117.046 37.3338 117.181 37.3188 117.321 37.2888C117.461 37.2488 117.581 37.2088 117.681 37.1688L117.981 38.4438C117.781 38.5138 117.551 38.5738 117.291 38.6238C117.041 38.6838 116.771 38.7138 116.481 38.7138ZM119.456 38.5338V31.1688H121.181V38.5338H119.456ZM120.326 29.8788C120.016 29.8788 119.766 29.7888 119.576 29.6088C119.386 29.4288 119.291 29.1888 119.291 28.8888C119.291 28.5988 119.386 28.3638 119.576 28.1838C119.766 28.0038 120.016 27.9138 120.326 27.9138C120.636 27.9138 120.886 28.0038 121.076 28.1838C121.266 28.3638 121.361 28.5988 121.361 28.8888C121.361 29.1888 121.266 29.4288 121.076 29.6088C120.886 29.7888 120.636 29.8788 120.326 29.8788ZM126.682 38.7138C126.002 38.7138 125.387 38.5638 124.837 38.2638C124.287 37.9538 123.852 37.5138 123.532 36.9438C123.212 36.3638 123.052 35.6688 123.052 34.8588C123.052 34.0588 123.212 33.3688 123.532 32.7888C123.862 32.2088 124.287 31.7638 124.807 31.4538C125.327 31.1438 125.872 30.9888 126.442 30.9888C127.112 30.9888 127.672 31.1388 128.122 31.4388C128.572 31.7288 128.912 32.1388 129.142 32.6688C129.372 33.1888 129.487 33.7938 129.487 34.4838C129.487 34.8438 129.462 35.1238 129.412 35.3238H124.732C124.812 35.9738 125.047 36.4788 125.437 36.8388C125.827 37.1988 126.317 37.3788 126.907 37.3788C127.227 37.3788 127.522 37.3338 127.792 37.2438C128.072 37.1438 128.347 37.0088 128.617 36.8388L129.202 37.9188C128.852 38.1488 128.462 38.3388 128.032 38.4888C127.602 38.6388 127.152 38.7138 126.682 38.7138ZM124.717 34.1538H127.987C127.987 33.5838 127.862 33.1388 127.612 32.8188C127.362 32.4888 126.987 32.3238 126.487 32.3238C126.057 32.3238 125.672 32.4838 125.332 32.8038C125.002 33.1138 124.797 33.5638 124.717 34.1538ZM133.34 38.7138C132.84 38.7138 132.34 38.6188 131.84 38.4288C131.34 38.2288 130.91 37.9838 130.55 37.6938L131.36 36.5838C131.69 36.8338 132.02 37.0338 132.35 37.1838C132.68 37.3338 133.03 37.4088 133.4 37.4088C133.8 37.4088 134.095 37.3238 134.285 37.1538C134.475 36.9838 134.57 36.7738 134.57 36.5238C134.57 36.3138 134.49 36.1438 134.33 36.0138C134.18 35.8738 133.985 35.7538 133.745 35.6538C133.505 35.5438 133.255 35.4388 132.995 35.3388C132.675 35.2188 132.355 35.0738 132.035 34.9038C131.725 34.7238 131.47 34.4988 131.27 34.2288C131.07 33.9488 130.97 33.6038 130.97 33.1938C130.97 32.5438 131.21 32.0138 131.69 31.6038C132.17 31.1938 132.82 30.9888 133.64 30.9888C134.16 30.9888 134.625 31.0788 135.035 31.2588C135.445 31.4388 135.8 31.6438 136.1 31.8738L135.305 32.9238C135.045 32.7338 134.78 32.5838 134.51 32.4738C134.25 32.3538 133.975 32.2938 133.685 32.2938C133.315 32.2938 133.04 32.3738 132.86 32.5338C132.68 32.6838 132.59 32.8738 132.59 33.1038C132.59 33.3938 132.74 33.6138 133.04 33.7638C133.34 33.9138 133.69 34.0588 134.09 34.1988C134.43 34.3188 134.76 34.4688 135.08 34.6488C135.4 34.8188 135.665 35.0438 135.875 35.3238C136.095 35.6038 136.205 35.9738 136.205 36.4338C136.205 37.0638 135.96 37.6038 135.47 38.0538C134.98 38.4938 134.27 38.7138 133.34 38.7138Z" fill="#010E3A"/>
<rect x="23.5332" y="54.3007" width="198.566" height="31.7669" rx="5.88345" fill="#3FE0C5"/>
<path d="M41.479 62.6492C41.0102 62.2135 40.3814 61.9487 39.6919 61.9487C38.2413 61.9487 37.0664 63.1236 37.0664 64.5742C37.0664 65.0927 37.2181 65.5753 37.4773 65.9835L41.479 62.6492ZM44.1265 76.069C45.5137 76.069 46.7962 75.6112 47.8276 74.839L48.7984 75.8098C49.1431 76.1545 49.7029 76.1545 50.0477 75.8098C50.3924 75.465 50.3924 74.9052 50.0477 74.5604L49.0769 73.5897C49.8491 72.5582 50.3069 71.2786 50.3069 69.8886C50.3042 66.4799 47.538 63.7138 44.1265 63.7138C40.7151 63.7138 37.9489 66.4799 37.9489 69.8914C37.9489 71.2786 38.4067 72.561 39.1789 73.5924L38.2082 74.5632C37.8634 74.9079 37.8634 75.4678 38.2082 75.8125C38.5529 76.1573 39.1127 76.1573 39.4575 75.8125L40.4282 74.8417C41.4597 75.614 42.7393 76.0718 44.1265 76.0718V76.069ZM50.7758 65.9862C51.035 65.5781 51.1867 65.0927 51.1867 64.5742C51.1867 63.1236 50.0118 61.9487 48.5612 61.9487C47.8717 61.9487 47.2429 62.2135 46.7741 62.6492L50.7758 65.9862ZM44.7884 67.0232V69.6184L45.9192 70.7491C46.1784 71.0083 46.1784 71.4275 45.9192 71.684C45.6599 71.9405 45.2407 71.9432 44.9842 71.684L43.6605 70.3602C43.5364 70.2361 43.4674 70.0679 43.4674 69.8914V67.0232C43.4674 66.6564 43.7625 66.3613 44.1293 66.3613C44.4961 66.3613 44.7912 66.6564 44.7912 67.0232H44.7884Z" fill="#010E3A"/>
<path d="M59.833 75.1841V73.9151H61.75V68.2721H60.1705V67.3001C60.5935 67.2191 60.9625 67.1246 61.2775 67.0166C61.5925 66.8996 61.885 66.7601 62.155 66.5981H63.316V73.9151H65.0035V75.1841H59.833ZM72.427 75.3461C71.878 75.3461 71.365 75.2111 70.888 74.9411C70.411 74.6621 70.024 74.2661 69.727 73.7531C69.43 73.2311 69.2815 72.6056 69.2815 71.8766C69.2815 71.1386 69.43 70.5131 69.727 70.0001C70.024 69.4781 70.411 69.0821 70.888 68.8121C71.365 68.5331 71.878 68.3936 72.427 68.3936C72.985 68.3936 73.5025 68.5331 73.9795 68.8121C74.4565 69.0821 74.8435 69.4781 75.1405 70.0001C75.4375 70.5131 75.586 71.1386 75.586 71.8766C75.586 72.6056 75.4375 73.2311 75.1405 73.7531C74.8435 74.2661 74.4565 74.6621 73.9795 74.9411C73.5025 75.2111 72.985 75.3461 72.427 75.3461ZM72.427 74.0771C72.913 74.0771 73.2955 73.8746 73.5745 73.4696C73.8535 73.0646 73.993 72.5336 73.993 71.8766C73.993 71.2106 73.8535 70.6751 73.5745 70.2701C73.2955 69.8651 72.913 69.6626 72.427 69.6626C71.941 69.6626 71.5585 69.8651 71.2795 70.2701C71.0095 70.6751 70.8745 71.2106 70.8745 71.8766C70.8745 72.5336 71.0095 73.0646 71.2795 73.4696C71.5585 73.8746 71.941 74.0771 72.427 74.0771ZM78.6636 75.1841L76.3551 68.5556H77.9346L78.9876 71.9981C79.0776 72.3221 79.1676 72.6506 79.2576 72.9836C79.3566 73.3166 79.4511 73.6541 79.5411 73.9961H79.5951C79.6941 73.6541 79.7886 73.3166 79.8786 72.9836C79.9776 72.6506 80.0721 72.3221 80.1621 71.9981L81.2151 68.5556H82.7136L80.4591 75.1841H78.6636ZM86.7536 75.3461C86.1416 75.3461 85.5881 75.2111 85.0931 74.9411C84.5981 74.6621 84.2066 74.2661 83.9186 73.7531C83.6306 73.2311 83.4866 72.6056 83.4866 71.8766C83.4866 71.1566 83.6306 70.5356 83.9186 70.0136C84.2156 69.4916 84.5981 69.0911 85.0661 68.8121C85.5341 68.5331 86.0246 68.3936 86.5376 68.3936C87.1406 68.3936 87.6446 68.5286 88.0496 68.7986C88.4546 69.0596 88.7606 69.4286 88.9676 69.9056C89.1746 70.3736 89.2781 70.9181 89.2781 71.5391C89.2781 71.8631 89.2556 72.1151 89.2106 72.2951H84.9986C85.0706 72.8801 85.2821 73.3346 85.6331 73.6586C85.9841 73.9826 86.4251 74.1446 86.9561 74.1446C87.2441 74.1446 87.5096 74.1041 87.7526 74.0231C88.0046 73.9331 88.2521 73.8116 88.4951 73.6586L89.0216 74.6306C88.7066 74.8376 88.3556 75.0086 87.9686 75.1436C87.5816 75.2786 87.1766 75.3461 86.7536 75.3461ZM84.9851 71.2421H87.9281C87.9281 70.7291 87.8156 70.3286 87.5906 70.0406C87.3656 69.7436 87.0281 69.5951 86.5781 69.5951C86.1911 69.5951 85.8446 69.7391 85.5386 70.0271C85.2416 70.3061 85.0571 70.7111 84.9851 71.2421ZM90.8959 75.1841V68.5556H92.1784L92.2864 69.7301H92.3404C92.5744 69.2981 92.8579 68.9696 93.1909 68.7446C93.5239 68.5106 93.8659 68.3936 94.2169 68.3936C94.5319 68.3936 94.7839 68.4386 94.9729 68.5286L94.7029 69.8786C94.5859 69.8426 94.4779 69.8156 94.3789 69.7976C94.2799 69.7796 94.1584 69.7706 94.0144 69.7706C93.7534 69.7706 93.4789 69.8741 93.1909 70.0811C92.9029 70.2791 92.6554 70.6301 92.4484 71.1341V75.1841H90.8959ZM98.2571 75.3461C97.4291 75.3461 96.7676 75.0401 96.2726 74.4281C95.7776 73.8161 95.5301 72.9656 95.5301 71.8766C95.5301 71.1566 95.6606 70.5356 95.9216 70.0136C96.1916 69.4916 96.5426 69.0911 96.9746 68.8121C97.4066 68.5331 97.8612 68.3936 98.3382 68.3936C98.7162 68.3936 99.0357 68.4611 99.2967 68.5961C99.5667 68.7221 99.8277 68.8976 100.08 69.1226L100.026 68.0561V65.6531H101.578V75.1841H100.296L100.188 74.4686H100.134C99.8907 74.7116 99.6072 74.9186 99.2831 75.0896C98.9592 75.2606 98.6172 75.3461 98.2571 75.3461ZM98.6351 74.0636C99.1301 74.0636 99.5936 73.8161 100.026 73.3211V70.2296C99.8006 70.0226 99.5756 69.8786 99.3506 69.7976C99.1257 69.7166 98.9007 69.6761 98.6757 69.6761C98.2527 69.6761 97.8881 69.8696 97.5821 70.2566C97.2851 70.6346 97.1366 71.1701 97.1366 71.8631C97.1366 72.5741 97.2671 73.1186 97.5282 73.4966C97.7891 73.8746 98.1581 74.0636 98.6351 74.0636ZM105.661 75.3461C104.95 75.3461 104.433 75.1166 104.109 74.6576C103.785 74.1986 103.623 73.5506 103.623 72.7136V68.5556H105.175V72.5111C105.175 73.0601 105.256 73.4471 105.418 73.6721C105.58 73.8971 105.841 74.0096 106.201 74.0096C106.489 74.0096 106.741 73.9376 106.957 73.7936C107.182 73.6496 107.421 73.4156 107.673 73.0916V68.5556H109.225V75.1841H107.956L107.835 74.2121H107.794C107.506 74.5541 107.191 74.8286 106.849 75.0356C106.507 75.2426 106.111 75.3461 105.661 75.3461ZM114.162 75.3461C113.55 75.3461 112.996 75.2111 112.501 74.9411C112.006 74.6621 111.615 74.2661 111.327 73.7531C111.039 73.2311 110.895 72.6056 110.895 71.8766C110.895 71.1566 111.039 70.5356 111.327 70.0136C111.624 69.4916 112.006 69.0911 112.474 68.8121C112.942 68.5331 113.433 68.3936 113.946 68.3936C114.549 68.3936 115.053 68.5286 115.458 68.7986C115.863 69.0596 116.169 69.4286 116.376 69.9056C116.583 70.3736 116.686 70.9181 116.686 71.5391C116.686 71.8631 116.664 72.1151 116.619 72.2951H112.407C112.479 72.8801 112.69 73.3346 113.041 73.6586C113.392 73.9826 113.833 74.1446 114.364 74.1446C114.652 74.1446 114.918 74.1041 115.161 74.0231C115.413 73.9331 115.66 73.8116 115.903 73.6586L116.43 74.6306C116.115 74.8376 115.764 75.0086 115.377 75.1436C114.99 75.2786 114.585 75.3461 114.162 75.3461ZM112.393 71.2421H115.336C115.336 70.7291 115.224 70.3286 114.999 70.0406C114.774 69.7436 114.436 69.5951 113.986 69.5951C113.599 69.5951 113.253 69.7391 112.947 70.0271C112.65 70.3061 112.465 70.7111 112.393 71.2421Z" fill="#010E3A"/>
<rect x="23.5332" y="91.951" width="198.566" height="31.7669" rx="5.88345" fill="#FCDED6"/>
<rect x="23.5332" y="91.951" width="198.566" height="31.7669" rx="5.88345" fill="#FCDED6"/>
<path d="M47.069 100.132L45.7342 101.467L49.3194 105.052L50.6542 103.717C51.3437 103.028 51.3437 101.911 50.6542 101.221L49.5676 100.132C48.8782 99.4424 47.7612 99.4424 47.0717 100.132H47.069ZM45.1109 102.09L38.6823 108.521C38.3955 108.808 38.1859 109.164 38.0701 109.553L37.0938 112.87C37.0248 113.105 37.0883 113.356 37.2593 113.527C37.4303 113.698 37.6812 113.761 37.9129 113.695L41.2306 112.719C41.6195 112.603 41.9752 112.393 42.262 112.106L48.6961 105.675L45.1109 102.09Z" fill="#F2674A"/>
<path d="M47.069 100.132L45.7342 101.467L49.3194 105.052L50.6542 103.717C51.3437 103.028 51.3437 101.911 50.6542 101.221L49.5676 100.132C48.8782 99.4424 47.7612 99.4424 47.0717 100.132H47.069ZM45.1109 102.09L38.6823 108.521C38.3955 108.808 38.1859 109.164 38.0701 109.553L37.0938 112.87C37.0248 113.105 37.0883 113.356 37.2593 113.527C37.4303 113.698 37.6812 113.761 37.9129 113.695L41.2306 112.719C41.6195 112.603 41.9752 112.393 42.262 112.106L48.6961 105.675L45.1109 102.09Z" fill="#F2674A"/>
<path d="M62.0875 112.996C61.3945 112.996 60.8095 112.879 60.3325 112.645C59.8645 112.402 59.473 112.123 59.158 111.808L59.8735 110.809C60.1345 111.052 60.427 111.268 60.751 111.457C61.075 111.637 61.453 111.727 61.885 111.727C62.362 111.727 62.758 111.583 63.073 111.295C63.388 111.007 63.5455 110.602 63.5455 110.08C63.5455 109.567 63.4015 109.171 63.1135 108.892C62.8255 108.613 62.443 108.474 61.966 108.474C61.687 108.474 61.453 108.514 61.264 108.595C61.075 108.667 60.85 108.789 60.589 108.96L59.8465 108.487L60.103 104.248H64.693V105.558H61.453L61.2775 107.637C61.4575 107.547 61.633 107.479 61.804 107.434C61.984 107.38 62.1865 107.353 62.4115 107.353C62.9065 107.353 63.3565 107.448 63.7615 107.637C64.1665 107.826 64.4905 108.118 64.7335 108.514C64.9855 108.91 65.1115 109.419 65.1115 110.04C65.1115 110.661 64.9675 111.192 64.6795 111.633C64.4005 112.074 64.0315 112.411 63.5725 112.645C63.1135 112.879 62.6185 112.996 62.0875 112.996ZM72.049 112.996C71.284 112.996 70.7395 112.776 70.4155 112.335C70.1005 111.885 69.943 111.304 69.943 110.593V107.434H68.998V106.273L70.024 106.206L70.213 104.397H71.509V106.206H73.1965V107.434H71.509V110.593C71.509 111.367 71.8195 111.754 72.4405 111.754C72.5575 111.754 72.679 111.741 72.805 111.714C72.931 111.678 73.039 111.642 73.129 111.606L73.399 112.753C73.219 112.816 73.012 112.87 72.778 112.915C72.553 112.969 72.31 112.996 72.049 112.996ZM76.0429 112.996C75.4669 112.996 74.9944 112.816 74.6254 112.456C74.2654 112.096 74.0854 111.628 74.0854 111.052C74.0854 110.341 74.3959 109.792 75.0169 109.405C75.6379 109.009 76.6279 108.739 77.9869 108.595C77.9779 108.244 77.8834 107.943 77.7034 107.691C77.5324 107.43 77.2219 107.299 76.7719 107.299C76.4479 107.299 76.1284 107.362 75.8134 107.488C75.5074 107.614 75.2059 107.767 74.9089 107.947L74.3419 106.908C74.7109 106.674 75.1249 106.471 75.5839 106.3C76.0519 106.129 76.5469 106.044 77.0689 106.044C77.8969 106.044 78.5134 106.291 78.9184 106.786C79.3324 107.272 79.5394 107.979 79.5394 108.906V112.834H78.2569L78.1489 112.105H78.0949C77.7979 112.357 77.4784 112.569 77.1364 112.74C76.8034 112.911 76.4389 112.996 76.0429 112.996ZM76.5424 111.781C76.8124 111.781 77.0554 111.718 77.2714 111.592C77.4964 111.457 77.7349 111.277 77.9869 111.052V109.567C77.0869 109.684 76.4614 109.86 76.1104 110.094C75.7594 110.319 75.5839 110.598 75.5839 110.931C75.5839 111.228 75.6739 111.444 75.8539 111.579C76.0339 111.714 76.2634 111.781 76.5424 111.781ZM83.3818 112.996C82.9318 112.996 82.4818 112.911 82.0318 112.74C81.5818 112.56 81.1948 112.339 80.8708 112.078L81.5998 111.079C81.8968 111.304 82.1938 111.484 82.4908 111.619C82.7878 111.754 83.1028 111.822 83.4358 111.822C83.7958 111.822 84.0613 111.745 84.2323 111.592C84.4033 111.439 84.4888 111.25 84.4888 111.025C84.4888 110.836 84.4168 110.683 84.2728 110.566C84.1378 110.44 83.9623 110.332 83.7463 110.242C83.5303 110.143 83.3053 110.049 83.0713 109.959C82.7833 109.851 82.4953 109.72 82.2073 109.567C81.9283 109.405 81.6988 109.203 81.5188 108.96C81.3388 108.708 81.2488 108.397 81.2488 108.028C81.2488 107.443 81.4648 106.966 81.8968 106.597C82.3288 106.228 82.9138 106.044 83.6518 106.044C84.1198 106.044 84.5383 106.125 84.9073 106.287C85.2763 106.449 85.5958 106.633 85.8658 106.84L85.1503 107.785C84.9163 107.614 84.6778 107.479 84.4348 107.38C84.2008 107.272 83.9533 107.218 83.6923 107.218C83.3593 107.218 83.1118 107.29 82.9498 107.434C82.7878 107.569 82.7068 107.74 82.7068 107.947C82.7068 108.208 82.8418 108.406 83.1118 108.541C83.3818 108.676 83.6968 108.807 84.0568 108.933C84.3628 109.041 84.6598 109.176 84.9478 109.338C85.2358 109.491 85.4743 109.693 85.6633 109.945C85.8613 110.197 85.9603 110.53 85.9603 110.944C85.9603 111.511 85.7398 111.997 85.2988 112.402C84.8578 112.798 84.2188 112.996 83.3818 112.996ZM87.4813 112.834V103.303H89.0068V109.257H89.0473L91.5043 106.206H93.2053L90.9373 108.906L93.4348 112.834H91.7473L90.0463 109.959L89.0068 111.147V112.834H87.4813ZM99.8427 112.996C99.0777 112.996 98.5332 112.776 98.2092 112.335C97.8942 111.885 97.7367 111.304 97.7367 110.593V107.434H96.7917V106.273L97.8177 106.206L98.0067 104.397H99.3027V106.206H100.99V107.434H99.3027V110.593C99.3027 111.367 99.6132 111.754 100.234 111.754C100.351 111.754 100.473 111.741 100.599 111.714C100.725 111.678 100.833 111.642 100.923 111.606L101.193 112.753C101.013 112.816 100.806 112.87 100.572 112.915C100.347 112.969 100.104 112.996 99.8427 112.996ZM105.023 112.996C104.474 112.996 103.961 112.861 103.484 112.591C103.007 112.312 102.62 111.916 102.323 111.403C102.026 110.881 101.877 110.256 101.877 109.527C101.877 108.789 102.026 108.163 102.323 107.65C102.62 107.128 103.007 106.732 103.484 106.462C103.961 106.183 104.474 106.044 105.023 106.044C105.581 106.044 106.098 106.183 106.575 106.462C107.052 106.732 107.439 107.128 107.736 107.65C108.033 108.163 108.182 108.789 108.182 109.527C108.182 110.256 108.033 110.881 107.736 111.403C107.439 111.916 107.052 112.312 106.575 112.591C106.098 112.861 105.581 112.996 105.023 112.996ZM105.023 111.727C105.509 111.727 105.891 111.525 106.17 111.12C106.449 110.715 106.589 110.184 106.589 109.527C106.589 108.861 106.449 108.325 106.17 107.92C105.891 107.515 105.509 107.313 105.023 107.313C104.537 107.313 104.154 107.515 103.875 107.92C103.605 108.325 103.47 108.861 103.47 109.527C103.47 110.184 103.605 110.715 103.875 111.12C104.154 111.525 104.537 111.727 105.023 111.727ZM115.013 112.996C114.185 112.996 113.523 112.69 113.028 112.078C112.533 111.466 112.286 110.616 112.286 109.527C112.286 108.807 112.416 108.186 112.677 107.664C112.947 107.142 113.298 106.741 113.73 106.462C114.162 106.183 114.617 106.044 115.094 106.044C115.472 106.044 115.791 106.111 116.052 106.246C116.322 106.372 116.583 106.548 116.835 106.773L116.781 105.706V103.303H118.334V112.834H117.051L116.943 112.119H116.889C116.646 112.362 116.363 112.569 116.039 112.74C115.715 112.911 115.373 112.996 115.013 112.996ZM115.391 111.714C115.886 111.714 116.349 111.466 116.781 110.971V107.88C116.556 107.673 116.331 107.529 116.106 107.448C115.881 107.367 115.656 107.326 115.431 107.326C115.008 107.326 114.644 107.52 114.338 107.907C114.041 108.285 113.892 108.82 113.892 109.513C113.892 110.224 114.023 110.769 114.284 111.147C114.545 111.525 114.914 111.714 115.391 111.714ZM123.16 112.996C122.611 112.996 122.098 112.861 121.621 112.591C121.144 112.312 120.757 111.916 120.46 111.403C120.163 110.881 120.014 110.256 120.014 109.527C120.014 108.789 120.163 108.163 120.46 107.65C120.757 107.128 121.144 106.732 121.621 106.462C122.098 106.183 122.611 106.044 123.16 106.044C123.718 106.044 124.235 106.183 124.712 106.462C125.189 106.732 125.576 107.128 125.873 107.65C126.17 108.163 126.319 108.789 126.319 109.527C126.319 110.256 126.17 110.881 125.873 111.403C125.576 111.916 125.189 112.312 124.712 112.591C124.235 112.861 123.718 112.996 123.16 112.996ZM123.16 111.727C123.646 111.727 124.028 111.525 124.307 111.12C124.586 110.715 124.726 110.184 124.726 109.527C124.726 108.861 124.586 108.325 124.307 107.92C124.028 107.515 123.646 107.313 123.16 107.313C122.674 107.313 122.291 107.515 122.012 107.92C121.742 108.325 121.607 108.861 121.607 109.527C121.607 110.184 121.742 110.715 122.012 111.12C122.291 111.525 122.674 111.727 123.16 111.727Z" fill="#010E3A"/>
</svg>
