<svg width="298" height="211" viewBox="0 0 298 211" fill="none" xmlns="http://www.w3.org/2000/svg">
<rect width="296.724" height="210.081" transform="translate(0.519531)" fill="white"/>
<path d="M21.7745 27.78L21.4295 28.98H23.9345L23.5895 27.78C23.4295 27.26 23.2745 26.725 23.1245 26.175C22.9845 25.625 22.8445 25.08 22.7045 24.54H22.6445C22.5145 25.09 22.3745 25.64 22.2245 26.19C22.0845 26.73 21.9345 27.26 21.7745 27.78ZM18.4895 33L21.6845 23.19H23.7245L26.9195 33H25.0895L24.3245 30.345H21.0245L20.2595 33H18.4895ZM31.2038 33.18C30.5338 33.18 29.9288 33.03 29.3888 32.73C28.8588 32.42 28.4338 31.98 28.1138 31.41C27.8038 30.83 27.6488 30.135 27.6488 29.325C27.6488 28.505 27.8188 27.81 28.1588 27.24C28.4988 26.66 28.9488 26.22 29.5088 25.92C30.0788 25.61 30.6888 25.455 31.3388 25.455C31.8088 25.455 32.2188 25.535 32.5688 25.695C32.9188 25.855 33.2288 26.05 33.4988 26.28L32.6588 27.405C32.4688 27.235 32.2738 27.105 32.0738 27.015C31.8738 26.915 31.6588 26.865 31.4288 26.865C30.8388 26.865 30.3538 27.09 29.9738 27.54C29.6038 27.99 29.4188 28.585 29.4188 29.325C29.4188 30.055 29.5988 30.645 29.9588 31.095C30.3288 31.545 30.8038 31.77 31.3838 31.77C31.6738 31.77 31.9438 31.71 32.1938 31.59C32.4538 31.46 32.6888 31.31 32.8988 31.14L33.6038 32.28C33.2638 32.58 32.8838 32.805 32.4638 32.955C32.0438 33.105 31.6238 33.18 31.2038 33.18ZM37.656 33.18C36.806 33.18 36.201 32.935 35.841 32.445C35.491 31.945 35.316 31.3 35.316 30.51V27H34.266V25.71L35.406 25.635L35.616 23.625H37.056V25.635H38.931V27H37.056V30.51C37.056 31.37 37.401 31.8 38.091 31.8C38.221 31.8 38.356 31.785 38.496 31.755C38.636 31.715 38.756 31.675 38.856 31.635L39.156 32.91C38.956 32.98 38.726 33.04 38.466 33.09C38.216 33.15 37.946 33.18 37.656 33.18ZM40.6309 33V25.635H42.3559V33H40.6309ZM41.5009 24.345C41.1909 24.345 40.9409 24.255 40.7509 24.075C40.5609 23.895 40.4659 23.655 40.4659 23.355C40.4659 23.065 40.5609 22.83 40.7509 22.65C40.9409 22.47 41.1909 22.38 41.5009 22.38C41.8109 22.38 42.0609 22.47 42.2509 22.65C42.4409 22.83 42.5359 23.065 42.5359 23.355C42.5359 23.655 42.4409 23.895 42.2509 24.075C42.0609 24.255 41.8109 24.345 41.5009 24.345ZM47.7217 33.18C47.1117 33.18 46.5417 33.03 46.0117 32.73C45.4817 32.42 45.0517 31.98 44.7217 31.41C44.3917 30.83 44.2267 30.135 44.2267 29.325C44.2267 28.505 44.3917 27.81 44.7217 27.24C45.0517 26.66 45.4817 26.22 46.0117 25.92C46.5417 25.61 47.1117 25.455 47.7217 25.455C48.3417 25.455 48.9167 25.61 49.4467 25.92C49.9767 26.22 50.4067 26.66 50.7367 27.24C51.0667 27.81 51.2317 28.505 51.2317 29.325C51.2317 30.135 51.0667 30.83 50.7367 31.41C50.4067 31.98 49.9767 32.42 49.4467 32.73C48.9167 33.03 48.3417 33.18 47.7217 33.18ZM47.7217 31.77C48.2617 31.77 48.6867 31.545 48.9967 31.095C49.3067 30.645 49.4617 30.055 49.4617 29.325C49.4617 28.585 49.3067 27.99 48.9967 27.54C48.6867 27.09 48.2617 26.865 47.7217 26.865C47.1817 26.865 46.7567 27.09 46.4467 27.54C46.1467 27.99 45.9967 28.585 45.9967 29.325C45.9967 30.055 46.1467 30.645 46.4467 31.095C46.7567 31.545 47.1817 31.77 47.7217 31.77ZM53.0891 33V25.635H54.5141L54.6341 26.625H54.6941C55.0241 26.305 55.3841 26.03 55.7741 25.8C56.1641 25.57 56.6091 25.455 57.1091 25.455C57.8991 25.455 58.4741 25.71 58.8341 26.22C59.1941 26.73 59.3741 27.45 59.3741 28.38V33H57.6491V28.605C57.6491 27.995 57.5591 27.565 57.3791 27.315C57.1991 27.065 56.9041 26.94 56.4941 26.94C56.1741 26.94 55.8891 27.02 55.6391 27.18C55.3991 27.33 55.1241 27.555 54.8141 27.855V33H53.0891ZM64.9356 33V23.19H68.0256C68.7556 23.19 69.4056 23.285 69.9756 23.475C70.5456 23.665 70.9956 23.98 71.3256 24.42C71.6556 24.86 71.8206 25.46 71.8206 26.22C71.8206 26.94 71.6556 27.535 71.3256 28.005C70.9956 28.475 70.5506 28.825 69.9906 29.055C69.4306 29.285 68.7956 29.4 68.0856 29.4H66.6756V33H64.9356ZM66.6756 28.005H67.9506C69.3906 28.005 70.1106 27.41 70.1106 26.22C70.1106 25.6 69.9206 25.175 69.5406 24.945C69.1706 24.705 68.6206 24.585 67.8906 24.585H66.6756V28.005ZM75.3461 33.18C74.7361 33.18 74.3011 32.995 74.0411 32.625C73.7911 32.255 73.6661 31.75 73.6661 31.11V22.41H75.3911V31.2C75.3911 31.41 75.4311 31.56 75.5111 31.65C75.5911 31.73 75.6761 31.77 75.7661 31.77C75.8061 31.77 75.8411 31.77 75.8711 31.77C75.9111 31.76 75.9661 31.75 76.0361 31.74L76.2611 33.03C76.1611 33.07 76.0311 33.105 75.8711 33.135C75.7211 33.165 75.5461 33.18 75.3461 33.18ZM79.6734 33.18C79.0334 33.18 78.5084 32.98 78.0984 32.58C77.6984 32.18 77.4984 31.66 77.4984 31.02C77.4984 30.23 77.8434 29.62 78.5334 29.19C79.2234 28.75 80.3234 28.45 81.8334 28.29C81.8234 27.9 81.7184 27.565 81.5184 27.285C81.3284 26.995 80.9834 26.85 80.4834 26.85C80.1234 26.85 79.7684 26.92 79.4184 27.06C79.0784 27.2 78.7434 27.37 78.4134 27.57L77.7834 26.415C78.1934 26.155 78.6534 25.93 79.1634 25.74C79.6834 25.55 80.2334 25.455 80.8134 25.455C81.7334 25.455 82.4184 25.73 82.8684 26.28C83.3284 26.82 83.5584 27.605 83.5584 28.635V33H82.1334L82.0134 32.19H81.9534C81.6234 32.47 81.2684 32.705 80.8884 32.895C80.5184 33.085 80.1134 33.18 79.6734 33.18ZM80.2284 31.83C80.5284 31.83 80.7984 31.76 81.0384 31.62C81.2884 31.47 81.5534 31.27 81.8334 31.02V29.37C80.8334 29.5 80.1384 29.695 79.7484 29.955C79.3584 30.205 79.1634 30.515 79.1634 30.885C79.1634 31.215 79.2634 31.455 79.4634 31.605C79.6634 31.755 79.9184 31.83 80.2284 31.83ZM85.7727 33V25.635H87.1977L87.3177 26.625H87.3777C87.7077 26.305 88.0677 26.03 88.4577 25.8C88.8477 25.57 89.2927 25.455 89.7927 25.455C90.5827 25.455 91.1577 25.71 91.5177 26.22C91.8777 26.73 92.0577 27.45 92.0577 28.38V33H90.3327V28.605C90.3327 27.995 90.2427 27.565 90.0627 27.315C89.8827 27.065 89.5877 26.94 89.1777 26.94C88.8577 26.94 88.5727 27.02 88.3227 27.18C88.0827 27.33 87.8077 27.555 87.4977 27.855V33H85.7727ZM101.534 33.18C100.714 33.18 99.9692 32.985 99.2992 32.595C98.6292 32.205 98.0942 31.635 97.6942 30.885C97.3042 30.125 97.1092 29.205 97.1092 28.125C97.1092 27.055 97.3092 26.14 97.7092 25.38C98.1192 24.61 98.6642 24.025 99.3442 23.625C100.024 23.215 100.774 23.01 101.594 23.01C102.214 23.01 102.764 23.135 103.244 23.385C103.724 23.635 104.119 23.925 104.429 24.255L103.499 25.38C103.249 25.12 102.969 24.915 102.659 24.765C102.359 24.605 102.019 24.525 101.639 24.525C101.109 24.525 100.634 24.67 100.214 24.96C99.8042 25.24 99.4792 25.645 99.2392 26.175C99.0092 26.705 98.8942 27.34 98.8942 28.08C98.8942 29.2 99.1392 30.08 99.6292 30.72C100.119 31.35 100.774 31.665 101.594 31.665C102.034 31.665 102.424 31.575 102.764 31.395C103.104 31.205 103.414 30.96 103.694 30.66L104.624 31.755C104.224 32.215 103.764 32.57 103.244 32.82C102.734 33.06 102.164 33.18 101.534 33.18ZM106.262 33V25.635H107.687L107.807 26.94H107.867C108.127 26.46 108.442 26.095 108.812 25.845C109.182 25.585 109.562 25.455 109.952 25.455C110.302 25.455 110.582 25.505 110.792 25.605L110.492 27.105C110.362 27.065 110.242 27.035 110.132 27.015C110.022 26.995 109.887 26.985 109.727 26.985C109.437 26.985 109.132 27.1 108.812 27.33C108.492 27.55 108.217 27.94 107.987 28.5V33H106.262ZM115.011 33.18C114.331 33.18 113.716 33.03 113.166 32.73C112.616 32.42 112.181 31.98 111.861 31.41C111.541 30.83 111.381 30.135 111.381 29.325C111.381 28.525 111.541 27.835 111.861 27.255C112.191 26.675 112.616 26.23 113.136 25.92C113.656 25.61 114.201 25.455 114.771 25.455C115.441 25.455 116.001 25.605 116.451 25.905C116.901 26.195 117.241 26.605 117.471 27.135C117.701 27.655 117.816 28.26 117.816 28.95C117.816 29.31 117.791 29.59 117.741 29.79H113.061C113.141 30.44 113.376 30.945 113.766 31.305C114.156 31.665 114.646 31.845 115.236 31.845C115.556 31.845 115.851 31.8 116.121 31.71C116.401 31.61 116.676 31.475 116.946 31.305L117.531 32.385C117.181 32.615 116.791 32.805 116.361 32.955C115.931 33.105 115.481 33.18 115.011 33.18ZM113.046 28.62H116.316C116.316 28.05 116.191 27.605 115.941 27.285C115.691 26.955 115.316 26.79 114.816 26.79C114.386 26.79 114.001 26.95 113.661 27.27C113.331 27.58 113.126 28.03 113.046 28.62ZM121.223 33.18C120.583 33.18 120.058 32.98 119.648 32.58C119.248 32.18 119.048 31.66 119.048 31.02C119.048 30.23 119.393 29.62 120.083 29.19C120.773 28.75 121.873 28.45 123.383 28.29C123.373 27.9 123.268 27.565 123.068 27.285C122.878 26.995 122.533 26.85 122.033 26.85C121.673 26.85 121.318 26.92 120.968 27.06C120.628 27.2 120.293 27.37 119.963 27.57L119.333 26.415C119.743 26.155 120.203 25.93 120.713 25.74C121.233 25.55 121.783 25.455 122.363 25.455C123.283 25.455 123.968 25.73 124.418 26.28C124.878 26.82 125.108 27.605 125.108 28.635V33H123.683L123.563 32.19H123.503C123.173 32.47 122.818 32.705 122.438 32.895C122.068 33.085 121.663 33.18 121.223 33.18ZM121.778 31.83C122.078 31.83 122.348 31.76 122.588 31.62C122.838 31.47 123.103 31.27 123.383 31.02V29.37C122.383 29.5 121.688 29.695 121.298 29.955C120.908 30.205 120.713 30.515 120.713 30.885C120.713 31.215 120.813 31.455 121.013 31.605C121.213 31.755 121.468 31.83 121.778 31.83ZM129.683 33.18C128.833 33.18 128.228 32.935 127.868 32.445C127.518 31.945 127.343 31.3 127.343 30.51V27H126.293V25.71L127.433 25.635L127.643 23.625H129.083V25.635H130.958V27H129.083V30.51C129.083 31.37 129.428 31.8 130.118 31.8C130.248 31.8 130.383 31.785 130.523 31.755C130.663 31.715 130.783 31.675 130.883 31.635L131.183 32.91C130.983 32.98 130.753 33.04 130.493 33.09C130.243 33.15 129.973 33.18 129.683 33.18ZM135.573 33.18C134.893 33.18 134.278 33.03 133.728 32.73C133.178 32.42 132.743 31.98 132.423 31.41C132.103 30.83 131.943 30.135 131.943 29.325C131.943 28.525 132.103 27.835 132.423 27.255C132.753 26.675 133.178 26.23 133.698 25.92C134.218 25.61 134.763 25.455 135.333 25.455C136.003 25.455 136.563 25.605 137.013 25.905C137.463 26.195 137.803 26.605 138.033 27.135C138.263 27.655 138.378 28.26 138.378 28.95C138.378 29.31 138.353 29.59 138.303 29.79H133.623C133.703 30.44 133.938 30.945 134.328 31.305C134.718 31.665 135.208 31.845 135.798 31.845C136.118 31.845 136.413 31.8 136.683 31.71C136.963 31.61 137.238 31.475 137.508 31.305L138.093 32.385C137.743 32.615 137.353 32.805 136.923 32.955C136.493 33.105 136.043 33.18 135.573 33.18ZM133.608 28.62H136.878C136.878 28.05 136.753 27.605 136.503 27.285C136.253 26.955 135.878 26.79 135.378 26.79C134.948 26.79 134.563 26.95 134.223 27.27C133.893 27.58 133.688 28.03 133.608 28.62ZM142.756 33.18C141.836 33.18 141.101 32.84 140.551 32.16C140.001 31.48 139.726 30.535 139.726 29.325C139.726 28.525 139.871 27.835 140.161 27.255C140.461 26.675 140.851 26.23 141.331 25.92C141.811 25.61 142.316 25.455 142.846 25.455C143.266 25.455 143.621 25.53 143.911 25.68C144.211 25.82 144.501 26.015 144.781 26.265L144.721 25.08V22.41H146.446V33H145.021L144.901 32.205H144.841C144.571 32.475 144.256 32.705 143.896 32.895C143.536 33.085 143.156 33.18 142.756 33.18ZM143.176 31.755C143.726 31.755 144.241 31.48 144.721 30.93V27.495C144.471 27.265 144.221 27.105 143.971 27.015C143.721 26.925 143.471 26.88 143.221 26.88C142.751 26.88 142.346 27.095 142.006 27.525C141.676 27.945 141.511 28.54 141.511 29.31C141.511 30.1 141.656 30.705 141.946 31.125C142.236 31.545 142.646 31.755 143.176 31.755Z" fill="#010E3A"/>
<path d="M21.7955 60.54C21.7955 61.6973 22.0662 62.6213 22.6075 63.312C23.1675 63.984 23.9982 64.32 25.0995 64.32C25.6969 64.32 26.3222 64.1333 26.9755 63.76C27.6475 63.3867 28.2729 62.78 28.8515 61.94C28.7022 60.204 28.2915 58.888 27.6195 57.992C26.9475 57.0773 26.0422 56.62 24.9035 56.62C24.0449 56.62 23.3075 56.984 22.6915 57.712C22.0942 58.4213 21.7955 59.364 21.7955 60.54ZM24.2595 73.336C23.3075 73.336 22.4675 73.1587 21.7395 72.804C21.0302 72.4307 20.4329 71.9827 19.9475 71.46L21.2355 70.004C21.6089 70.4333 22.0475 70.7787 22.5515 71.04C23.0742 71.3013 23.6155 71.432 24.1755 71.432C25.0155 71.432 25.7902 71.1893 26.4995 70.704C27.2089 70.2187 27.7782 69.416 28.2075 68.296C28.6555 67.176 28.8889 65.664 28.9075 63.76C28.3475 64.4693 27.6942 65.0293 26.9475 65.44C26.2009 65.8507 25.4542 66.056 24.7075 66.056C23.1769 66.056 21.9449 65.5987 21.0115 64.684C20.0969 63.7507 19.6395 62.3693 19.6395 60.54C19.6395 59.4013 19.8822 58.4027 20.3675 57.544C20.8529 56.6853 21.4875 56.0133 22.2715 55.528C23.0742 55.0427 23.9515 54.8 24.9035 54.8C26.0795 54.8 27.1342 55.1173 28.0675 55.752C29.0009 56.3867 29.7289 57.3387 30.2515 58.608C30.7929 59.8773 31.0635 61.4733 31.0635 63.396C31.0635 65.7853 30.7369 67.708 30.0835 69.164C29.4489 70.62 28.6182 71.684 27.5915 72.356C26.5649 73.0093 25.4542 73.336 24.2595 73.336ZM37.3935 73C37.5055 70.76 37.7388 68.7533 38.0935 66.98C38.4668 65.188 39.0082 63.508 39.7175 61.94C40.4455 60.3533 41.3975 58.748 42.5735 57.124H33.6695V55.136H45.1775V56.564C44.1135 57.908 43.2455 59.2053 42.5735 60.456C41.9015 61.688 41.3788 62.9387 41.0055 64.208C40.6322 65.4587 40.3522 66.8027 40.1655 68.24C39.9788 69.6773 39.8482 71.264 39.7735 73H37.3935ZM52.9075 73.336C51.4888 73.336 50.3128 73.084 49.3795 72.58C48.4461 72.076 47.6715 71.516 47.0555 70.9L48.1755 69.388C48.7168 69.9107 49.3421 70.3867 50.0515 70.816C50.7608 71.2267 51.6381 71.432 52.6835 71.432C53.7848 71.432 54.7088 71.068 55.4555 70.34C56.2208 69.5933 56.6035 68.5947 56.6035 67.344C56.6035 66.112 56.2581 65.1507 55.5675 64.46C54.8768 63.7693 53.9528 63.424 52.7955 63.424C52.1795 63.424 51.6475 63.5173 51.1995 63.704C50.7701 63.8907 50.2848 64.1613 49.7435 64.516L48.5115 63.732L49.0995 55.136H58.0315V57.124H51.1155L50.6395 62.416C51.0688 62.192 51.4981 62.0147 51.9275 61.884C52.3568 61.7533 52.8421 61.688 53.3835 61.688C54.4101 61.688 55.3341 61.8933 56.1555 62.304C56.9955 62.696 57.6675 63.3027 58.1715 64.124C58.6755 64.9453 58.9275 66 58.9275 67.288C58.9275 68.576 58.6381 69.6773 58.0595 70.592C57.4995 71.488 56.7621 72.1693 55.8475 72.636C54.9328 73.1027 53.9528 73.336 52.9075 73.336Z" fill="#214ECF"/>
<path d="M21.7955 60.54C21.7955 61.6973 22.0662 62.6213 22.6075 63.312C23.1675 63.984 23.9982 64.32 25.0995 64.32C25.6969 64.32 26.3222 64.1333 26.9755 63.76C27.6475 63.3867 28.2729 62.78 28.8515 61.94C28.7022 60.204 28.2915 58.888 27.6195 57.992C26.9475 57.0773 26.0422 56.62 24.9035 56.62C24.0449 56.62 23.3075 56.984 22.6915 57.712C22.0942 58.4213 21.7955 59.364 21.7955 60.54ZM24.2595 73.336C23.3075 73.336 22.4675 73.1587 21.7395 72.804C21.0302 72.4307 20.4329 71.9827 19.9475 71.46L21.2355 70.004C21.6089 70.4333 22.0475 70.7787 22.5515 71.04C23.0742 71.3013 23.6155 71.432 24.1755 71.432C25.0155 71.432 25.7902 71.1893 26.4995 70.704C27.2089 70.2187 27.7782 69.416 28.2075 68.296C28.6555 67.176 28.8889 65.664 28.9075 63.76C28.3475 64.4693 27.6942 65.0293 26.9475 65.44C26.2009 65.8507 25.4542 66.056 24.7075 66.056C23.1769 66.056 21.9449 65.5987 21.0115 64.684C20.0969 63.7507 19.6395 62.3693 19.6395 60.54C19.6395 59.4013 19.8822 58.4027 20.3675 57.544C20.8529 56.6853 21.4875 56.0133 22.2715 55.528C23.0742 55.0427 23.9515 54.8 24.9035 54.8C26.0795 54.8 27.1342 55.1173 28.0675 55.752C29.0009 56.3867 29.7289 57.3387 30.2515 58.608C30.7929 59.8773 31.0635 61.4733 31.0635 63.396C31.0635 65.7853 30.7369 67.708 30.0835 69.164C29.4489 70.62 28.6182 71.684 27.5915 72.356C26.5649 73.0093 25.4542 73.336 24.2595 73.336ZM37.3935 73C37.5055 70.76 37.7388 68.7533 38.0935 66.98C38.4668 65.188 39.0082 63.508 39.7175 61.94C40.4455 60.3533 41.3975 58.748 42.5735 57.124H33.6695V55.136H45.1775V56.564C44.1135 57.908 43.2455 59.2053 42.5735 60.456C41.9015 61.688 41.3788 62.9387 41.0055 64.208C40.6322 65.4587 40.3522 66.8027 40.1655 68.24C39.9788 69.6773 39.8482 71.264 39.7735 73H37.3935ZM52.9075 73.336C51.4888 73.336 50.3128 73.084 49.3795 72.58C48.4461 72.076 47.6715 71.516 47.0555 70.9L48.1755 69.388C48.7168 69.9107 49.3421 70.3867 50.0515 70.816C50.7608 71.2267 51.6381 71.432 52.6835 71.432C53.7848 71.432 54.7088 71.068 55.4555 70.34C56.2208 69.5933 56.6035 68.5947 56.6035 67.344C56.6035 66.112 56.2581 65.1507 55.5675 64.46C54.8768 63.7693 53.9528 63.424 52.7955 63.424C52.1795 63.424 51.6475 63.5173 51.1995 63.704C50.7701 63.8907 50.2848 64.1613 49.7435 64.516L48.5115 63.732L49.0995 55.136H58.0315V57.124H51.1155L50.6395 62.416C51.0688 62.192 51.4981 62.0147 51.9275 61.884C52.3568 61.7533 52.8421 61.688 53.3835 61.688C54.4101 61.688 55.3341 61.8933 56.1555 62.304C56.9955 62.696 57.6675 63.3027 58.1715 64.124C58.6755 64.9453 58.9275 66 58.9275 67.288C58.9275 68.576 58.6381 69.6773 58.0595 70.592C57.4995 71.488 56.7621 72.1693 55.8475 72.636C54.9328 73.1027 53.9528 73.336 52.9075 73.336Z" fill="black" fill-opacity="0.2"/>
<path d="M21.7955 60.54C21.7955 61.6973 22.0662 62.6213 22.6075 63.312C23.1675 63.984 23.9982 64.32 25.0995 64.32C25.6969 64.32 26.3222 64.1333 26.9755 63.76C27.6475 63.3867 28.2729 62.78 28.8515 61.94C28.7022 60.204 28.2915 58.888 27.6195 57.992C26.9475 57.0773 26.0422 56.62 24.9035 56.62C24.0449 56.62 23.3075 56.984 22.6915 57.712C22.0942 58.4213 21.7955 59.364 21.7955 60.54ZM24.2595 73.336C23.3075 73.336 22.4675 73.1587 21.7395 72.804C21.0302 72.4307 20.4329 71.9827 19.9475 71.46L21.2355 70.004C21.6089 70.4333 22.0475 70.7787 22.5515 71.04C23.0742 71.3013 23.6155 71.432 24.1755 71.432C25.0155 71.432 25.7902 71.1893 26.4995 70.704C27.2089 70.2187 27.7782 69.416 28.2075 68.296C28.6555 67.176 28.8889 65.664 28.9075 63.76C28.3475 64.4693 27.6942 65.0293 26.9475 65.44C26.2009 65.8507 25.4542 66.056 24.7075 66.056C23.1769 66.056 21.9449 65.5987 21.0115 64.684C20.0969 63.7507 19.6395 62.3693 19.6395 60.54C19.6395 59.4013 19.8822 58.4027 20.3675 57.544C20.8529 56.6853 21.4875 56.0133 22.2715 55.528C23.0742 55.0427 23.9515 54.8 24.9035 54.8C26.0795 54.8 27.1342 55.1173 28.0675 55.752C29.0009 56.3867 29.7289 57.3387 30.2515 58.608C30.7929 59.8773 31.0635 61.4733 31.0635 63.396C31.0635 65.7853 30.7369 67.708 30.0835 69.164C29.4489 70.62 28.6182 71.684 27.5915 72.356C26.5649 73.0093 25.4542 73.336 24.2595 73.336ZM37.3935 73C37.5055 70.76 37.7388 68.7533 38.0935 66.98C38.4668 65.188 39.0082 63.508 39.7175 61.94C40.4455 60.3533 41.3975 58.748 42.5735 57.124H33.6695V55.136H45.1775V56.564C44.1135 57.908 43.2455 59.2053 42.5735 60.456C41.9015 61.688 41.3788 62.9387 41.0055 64.208C40.6322 65.4587 40.3522 66.8027 40.1655 68.24C39.9788 69.6773 39.8482 71.264 39.7735 73H37.3935ZM52.9075 73.336C51.4888 73.336 50.3128 73.084 49.3795 72.58C48.4461 72.076 47.6715 71.516 47.0555 70.9L48.1755 69.388C48.7168 69.9107 49.3421 70.3867 50.0515 70.816C50.7608 71.2267 51.6381 71.432 52.6835 71.432C53.7848 71.432 54.7088 71.068 55.4555 70.34C56.2208 69.5933 56.6035 68.5947 56.6035 67.344C56.6035 66.112 56.2581 65.1507 55.5675 64.46C54.8768 63.7693 53.9528 63.424 52.7955 63.424C52.1795 63.424 51.6475 63.5173 51.1995 63.704C50.7701 63.8907 50.2848 64.1613 49.7435 64.516L48.5115 63.732L49.0995 55.136H58.0315V57.124H51.1155L50.6395 62.416C51.0688 62.192 51.4981 62.0147 51.9275 61.884C52.3568 61.7533 52.8421 61.688 53.3835 61.688C54.4101 61.688 55.3341 61.8933 56.1555 62.304C56.9955 62.696 57.6675 63.3027 58.1715 64.124C58.6755 64.9453 58.9275 66 58.9275 67.288C58.9275 68.576 58.6381 69.6773 58.0595 70.592C57.4995 71.488 56.7621 72.1693 55.8475 72.636C54.9328 73.1027 53.9528 73.336 52.9075 73.336Z" fill="#214ECF"/>
<path d="M24.0956 91.0236C24.33 91.2579 24.7106 91.2579 24.945 91.0236L27.945 88.0236C28.1794 87.7892 28.1794 87.4086 27.945 87.1742C27.7106 86.9398 27.33 86.9398 27.0956 87.1742L25.1194 89.1523V83.3998C25.1194 83.0679 24.8513 82.7998 24.5194 82.7998C24.1875 82.7998 23.9194 83.0679 23.9194 83.3998V89.1504L21.9431 87.1761C21.7088 86.9417 21.3281 86.9417 21.0938 87.1761C20.8594 87.4104 20.8594 87.7911 21.0938 88.0254L24.0938 91.0254L24.0956 91.0236Z" fill="#595959"/>
<path d="M32.699 88.872V88.116H35.459V88.872H32.699ZM39.1856 87.564C38.9376 87.564 38.6696 87.644 38.3816 87.804C38.0936 87.964 37.8296 88.22 37.5896 88.572C37.6536 89.316 37.8256 89.884 38.1056 90.276C38.3936 90.668 38.7816 90.864 39.2696 90.864C39.6456 90.864 39.9616 90.712 40.2176 90.408C40.4736 90.096 40.6016 89.688 40.6016 89.184C40.6016 88.688 40.4816 88.296 40.2416 88.008C40.0096 87.712 39.6576 87.564 39.1856 87.564ZM39.2696 91.644C38.7736 91.644 38.3256 91.508 37.9256 91.236C37.5256 90.964 37.2096 90.556 36.9776 90.012C36.7456 89.46 36.6296 88.776 36.6296 87.96C36.6296 86.936 36.7656 86.112 37.0376 85.488C37.3176 84.864 37.6776 84.412 38.1176 84.132C38.5656 83.844 39.0416 83.7 39.5456 83.7C39.9616 83.7 40.3176 83.78 40.6136 83.94C40.9176 84.092 41.1776 84.284 41.3936 84.516L40.8416 85.128C40.6896 84.944 40.5016 84.8 40.2776 84.696C40.0536 84.584 39.8216 84.528 39.5816 84.528C39.2216 84.528 38.8936 84.632 38.5976 84.84C38.3016 85.04 38.0576 85.38 37.8656 85.86C37.6816 86.332 37.5816 86.972 37.5656 87.78C37.8056 87.484 38.0856 87.252 38.4056 87.084C38.7256 86.908 39.0416 86.82 39.3536 86.82C40.0176 86.82 40.5456 87.02 40.9376 87.42C41.3376 87.812 41.5376 88.4 41.5376 89.184C41.5376 89.672 41.4336 90.1 41.2256 90.468C41.0176 90.836 40.7416 91.124 40.3976 91.332C40.0616 91.54 39.6856 91.644 39.2696 91.644ZM44.9464 91.644C44.3384 91.644 43.8344 91.536 43.4344 91.32C43.0344 91.104 42.7024 90.864 42.4384 90.6L42.9184 89.952C43.1504 90.176 43.4184 90.38 43.7224 90.564C44.0264 90.74 44.4024 90.828 44.8504 90.828C45.3224 90.828 45.7184 90.672 46.0384 90.36C46.3664 90.04 46.5304 89.612 46.5304 89.076C46.5304 88.548 46.3824 88.136 46.0864 87.84C45.7904 87.544 45.3944 87.396 44.8984 87.396C44.6344 87.396 44.4064 87.436 44.2144 87.516C44.0304 87.596 43.8224 87.712 43.5904 87.864L43.0624 87.528L43.3144 83.844H47.1424V84.696H44.1784L43.9744 86.964C44.1584 86.868 44.3424 86.792 44.5264 86.736C44.7104 86.68 44.9184 86.652 45.1504 86.652C45.5904 86.652 45.9864 86.74 46.3384 86.916C46.6984 87.084 46.9864 87.344 47.2024 87.696C47.4184 88.048 47.5264 88.5 47.5264 89.052C47.5264 89.604 47.4024 90.076 47.1544 90.468C46.9144 90.852 46.5984 91.144 46.2064 91.344C45.8144 91.544 45.3944 91.644 44.9464 91.644ZM50.4313 88.452C49.8953 88.452 49.4633 88.236 49.1353 87.804C48.8073 87.372 48.6433 86.756 48.6433 85.956C48.6433 85.172 48.8073 84.564 49.1353 84.132C49.4633 83.7 49.8953 83.484 50.4313 83.484C50.9673 83.484 51.3993 83.7 51.7273 84.132C52.0553 84.564 52.2193 85.172 52.2193 85.956C52.2193 86.756 52.0553 87.372 51.7273 87.804C51.3993 88.236 50.9673 88.452 50.4313 88.452ZM50.4313 87.84C50.7353 87.84 50.9833 87.684 51.1753 87.372C51.3673 87.052 51.4633 86.58 51.4633 85.956C51.4633 85.332 51.3673 84.868 51.1753 84.564C50.9833 84.252 50.7353 84.096 50.4313 84.096C50.1193 84.096 49.8673 84.252 49.6753 84.564C49.4833 84.868 49.3873 85.332 49.3873 85.956C49.3873 86.58 49.4833 87.052 49.6753 87.372C49.8673 87.684 50.1193 87.84 50.4313 87.84ZM50.6593 91.644L55.0033 83.484H55.6753L51.3313 91.644H50.6593ZM55.9153 91.644C55.3793 91.644 54.9473 91.428 54.6193 90.996C54.2913 90.564 54.1273 89.948 54.1273 89.148C54.1273 88.364 54.2913 87.756 54.6193 87.324C54.9473 86.892 55.3793 86.676 55.9153 86.676C56.4513 86.676 56.8833 86.892 57.2113 87.324C57.5393 87.756 57.7033 88.364 57.7033 89.148C57.7033 89.948 57.5393 90.564 57.2113 90.996C56.8833 91.428 56.4513 91.644 55.9153 91.644ZM55.9153 91.032C56.2193 91.032 56.4673 90.876 56.6593 90.564C56.8513 90.244 56.9473 89.772 56.9473 89.148C56.9473 88.524 56.8513 88.06 56.6593 87.756C56.4673 87.444 56.2193 87.288 55.9153 87.288C55.6033 87.288 55.3513 87.444 55.1593 87.756C54.9673 88.06 54.8713 88.524 54.8713 89.148C54.8713 89.772 54.9673 90.244 55.1593 90.564C55.3513 90.876 55.6033 91.032 55.9153 91.032ZM63.0003 91.5L60.9003 85.668H61.9203L63.0243 88.98C63.1123 89.268 63.2003 89.556 63.2883 89.844C63.3843 90.132 63.4763 90.416 63.5643 90.696H63.6123C63.7003 90.416 63.7883 90.132 63.8763 89.844C63.9723 89.556 64.0603 89.268 64.1403 88.98L65.2443 85.668H66.2163L64.1523 91.5H63.0003ZM68.9858 91.644C68.5698 91.644 68.1738 91.568 67.7978 91.416C67.4218 91.256 67.0938 91.064 66.8138 90.84L67.3058 90.18C67.5618 90.38 67.8258 90.548 68.0978 90.684C68.3698 90.812 68.6778 90.876 69.0218 90.876C69.4058 90.876 69.6938 90.788 69.8858 90.612C70.0778 90.428 70.1738 90.212 70.1738 89.964C70.1738 89.764 70.1058 89.596 69.9698 89.46C69.8418 89.324 69.6738 89.212 69.4658 89.124C69.2658 89.028 69.0578 88.94 68.8418 88.86C68.5698 88.756 68.3018 88.64 68.0378 88.512C67.7738 88.376 67.5578 88.204 67.3898 87.996C67.2218 87.78 67.1378 87.508 67.1378 87.18C67.1378 86.708 67.3138 86.316 67.6658 86.004C68.0258 85.684 68.5218 85.524 69.1538 85.524C69.5138 85.524 69.8498 85.588 70.1618 85.716C70.4738 85.844 70.7418 86 70.9658 86.184L70.4858 86.808C70.2858 86.656 70.0778 86.532 69.8618 86.436C69.6458 86.34 69.4098 86.292 69.1538 86.292C68.7858 86.292 68.5138 86.376 68.3378 86.544C68.1698 86.712 68.0858 86.908 68.0858 87.132C68.0858 87.316 68.1458 87.468 68.2658 87.588C68.3858 87.7 68.5418 87.8 68.7338 87.888C68.9258 87.968 69.1298 88.052 69.3458 88.14C69.6258 88.244 69.9018 88.364 70.1738 88.5C70.4458 88.628 70.6698 88.804 70.8458 89.028C71.0298 89.244 71.1218 89.536 71.1218 89.904C71.1218 90.216 71.0378 90.504 70.8698 90.768C70.7098 91.032 70.4698 91.244 70.1498 91.404C69.8378 91.564 69.4498 91.644 68.9858 91.644ZM73.1252 91.644C72.9252 91.644 72.7532 91.576 72.6092 91.44C72.4732 91.296 72.4052 91.116 72.4052 90.9C72.4052 90.668 72.4732 90.484 72.6092 90.348C72.7532 90.204 72.9252 90.132 73.1252 90.132C73.3172 90.132 73.4812 90.204 73.6172 90.348C73.7612 90.484 73.8332 90.668 73.8332 90.9C73.8332 91.116 73.7612 91.296 73.6172 91.44C73.4812 91.576 73.3172 91.644 73.1252 91.644ZM79.2838 91.644C78.9158 91.644 78.6478 91.532 78.4798 91.308C78.3198 91.076 78.2398 90.748 78.2398 90.324V82.956H79.2238V90.396C79.2238 90.548 79.2518 90.66 79.3078 90.732C79.3638 90.796 79.4278 90.828 79.4998 90.828C79.5318 90.828 79.5598 90.828 79.5838 90.828C79.6158 90.82 79.6598 90.812 79.7158 90.804L79.8478 91.548C79.7838 91.58 79.7078 91.604 79.6198 91.62C79.5318 91.636 79.4198 91.644 79.2838 91.644ZM82.7624 91.644C82.2744 91.644 81.8664 91.5 81.5384 91.212C81.2184 90.916 81.0584 90.508 81.0584 89.988C81.0584 89.348 81.3424 88.86 81.9104 88.524C82.4864 88.18 83.3944 87.94 84.6344 87.804C84.6344 87.556 84.5984 87.32 84.5264 87.096C84.4624 86.872 84.3424 86.692 84.1664 86.556C83.9984 86.412 83.7544 86.34 83.4344 86.34C83.0984 86.34 82.7824 86.404 82.4864 86.532C82.1904 86.66 81.9264 86.804 81.6944 86.964L81.3104 86.28C81.5824 86.104 81.9144 85.936 82.3064 85.776C82.7064 85.608 83.1384 85.524 83.6024 85.524C84.3144 85.524 84.8304 85.744 85.1504 86.184C85.4704 86.616 85.6304 87.196 85.6304 87.924V91.5H84.8144L84.7304 90.804H84.6944C84.4224 91.028 84.1224 91.224 83.7944 91.392C83.4744 91.56 83.1304 91.644 82.7624 91.644ZM83.0504 90.852C83.3304 90.852 83.5944 90.784 83.8424 90.648C84.0904 90.512 84.3544 90.32 84.6344 90.072V88.452C83.6664 88.572 82.9864 88.752 82.5944 88.992C82.2104 89.232 82.0184 89.54 82.0184 89.916C82.0184 90.244 82.1184 90.484 82.3184 90.636C82.5184 90.78 82.7624 90.852 83.0504 90.852ZM89.1092 91.644C88.6932 91.644 88.2972 91.568 87.9212 91.416C87.5452 91.256 87.2172 91.064 86.9372 90.84L87.4292 90.18C87.6852 90.38 87.9492 90.548 88.2212 90.684C88.4932 90.812 88.8012 90.876 89.1452 90.876C89.5292 90.876 89.8172 90.788 90.0092 90.612C90.2012 90.428 90.2973 90.212 90.2973 89.964C90.2973 89.764 90.2292 89.596 90.0932 89.46C89.9652 89.324 89.7972 89.212 89.5892 89.124C89.3892 89.028 89.1812 88.94 88.9652 88.86C88.6932 88.756 88.4252 88.64 88.1612 88.512C87.8972 88.376 87.6812 88.204 87.5132 87.996C87.3452 87.78 87.2612 87.508 87.2612 87.18C87.2612 86.708 87.4372 86.316 87.7892 86.004C88.1492 85.684 88.6452 85.524 89.2772 85.524C89.6372 85.524 89.9732 85.588 90.2852 85.716C90.5972 85.844 90.8652 86 91.0892 86.184L90.6092 86.808C90.4092 86.656 90.2012 86.532 89.9852 86.436C89.7692 86.34 89.5332 86.292 89.2772 86.292C88.9092 86.292 88.6372 86.376 88.4612 86.544C88.2932 86.712 88.2092 86.908 88.2092 87.132C88.2092 87.316 88.2692 87.468 88.3892 87.588C88.5092 87.7 88.6652 87.8 88.8572 87.888C89.0492 87.968 89.2532 88.052 89.4692 88.14C89.7492 88.244 90.0252 88.364 90.2973 88.5C90.5692 88.628 90.7932 88.804 90.9692 89.028C91.1532 89.244 91.2452 89.536 91.2452 89.904C91.2452 90.216 91.1612 90.504 90.9933 90.768C90.8332 91.032 90.5932 91.244 90.2732 91.404C89.9612 91.564 89.5732 91.644 89.1092 91.644ZM94.3342 91.644C93.7102 91.644 93.2742 91.464 93.0262 91.104C92.7862 90.744 92.6662 90.276 92.6662 89.7V86.472H91.8022V85.728L92.7142 85.668L92.8342 84.036H93.6622V85.668H95.2342V86.472H93.6622V89.712C93.6622 90.072 93.7262 90.352 93.8542 90.552C93.9902 90.744 94.2262 90.84 94.5622 90.84C94.6662 90.84 94.7782 90.824 94.8982 90.792C95.0182 90.752 95.1262 90.716 95.2222 90.684L95.4142 91.428C95.2542 91.484 95.0782 91.532 94.8862 91.572C94.7022 91.62 94.5182 91.644 94.3342 91.644ZM101.043 91.644C100.435 91.644 99.9273 91.536 99.5193 91.32C99.1113 91.096 98.7793 90.844 98.5233 90.564L99.0273 89.916C99.2593 90.156 99.5313 90.368 99.8433 90.552C100.155 90.736 100.535 90.828 100.983 90.828C101.447 90.828 101.827 90.7 102.123 90.444C102.419 90.188 102.567 89.848 102.567 89.424C102.567 89.12 102.487 88.856 102.327 88.632C102.175 88.4 101.919 88.22 101.559 88.092C101.207 87.964 100.727 87.9 100.119 87.9V87.144C100.663 87.144 101.091 87.08 101.403 86.952C101.723 86.824 101.951 86.652 102.087 86.436C102.223 86.22 102.291 85.98 102.291 85.716C102.291 85.34 102.171 85.044 101.931 84.828C101.699 84.612 101.379 84.504 100.971 84.504C100.651 84.504 100.355 84.576 100.083 84.72C99.8193 84.864 99.5713 85.052 99.3393 85.284L98.8113 84.66C99.1073 84.38 99.4353 84.152 99.7953 83.976C100.155 83.792 100.559 83.7 101.007 83.7C101.671 83.7 102.219 83.872 102.651 84.216C103.083 84.552 103.299 85.028 103.299 85.644C103.299 86.108 103.171 86.488 102.915 86.784C102.659 87.08 102.323 87.308 101.907 87.468V87.516C102.371 87.62 102.763 87.84 103.083 88.176C103.403 88.504 103.563 88.932 103.563 89.46C103.563 89.908 103.451 90.296 103.227 90.624C103.003 90.952 102.699 91.204 102.315 91.38C101.939 91.556 101.515 91.644 101.043 91.644ZM107.284 91.644C106.516 91.644 105.912 91.3 105.472 90.612C105.04 89.916 104.824 88.928 104.824 87.648C104.824 86.36 105.04 85.38 105.472 84.708C105.912 84.036 106.516 83.7 107.284 83.7C108.044 83.7 108.64 84.036 109.072 84.708C109.512 85.38 109.732 86.36 109.732 87.648C109.732 88.928 109.512 89.916 109.072 90.612C108.64 91.3 108.044 91.644 107.284 91.644ZM107.284 90.852C107.732 90.852 108.092 90.6 108.364 90.096C108.636 89.584 108.772 88.768 108.772 87.648C108.772 86.528 108.636 85.724 108.364 85.236C108.092 84.74 107.732 84.492 107.284 84.492C106.836 84.492 106.472 84.74 106.192 85.236C105.92 85.724 105.784 86.528 105.784 87.648C105.784 88.768 105.92 89.584 106.192 90.096C106.472 90.6 106.836 90.852 107.284 90.852ZM115.879 91.644C115.151 91.644 114.567 91.38 114.127 90.852C113.687 90.316 113.467 89.564 113.467 88.596C113.467 87.964 113.583 87.42 113.815 86.964C114.055 86.5 114.367 86.144 114.751 85.896C115.143 85.648 115.559 85.524 115.999 85.524C116.335 85.524 116.627 85.584 116.875 85.704C117.123 85.824 117.375 85.988 117.631 86.196L117.583 85.2V82.956H118.579V91.5H117.763L117.679 90.816H117.643C117.419 91.04 117.155 91.236 116.851 91.404C116.547 91.564 116.223 91.644 115.879 91.644ZM116.095 90.816C116.607 90.816 117.103 90.548 117.583 90.012V86.964C117.335 86.74 117.095 86.584 116.863 86.496C116.639 86.4 116.407 86.352 116.167 86.352C115.855 86.352 115.571 86.448 115.315 86.64C115.067 86.824 114.867 87.084 114.715 87.42C114.563 87.748 114.487 88.136 114.487 88.584C114.487 89.28 114.627 89.828 114.907 90.228C115.187 90.62 115.583 90.816 116.095 90.816ZM122.008 91.644C121.52 91.644 121.112 91.5 120.784 91.212C120.464 90.916 120.304 90.508 120.304 89.988C120.304 89.348 120.588 88.86 121.156 88.524C121.732 88.18 122.64 87.94 123.88 87.804C123.88 87.556 123.844 87.32 123.772 87.096C123.708 86.872 123.588 86.692 123.412 86.556C123.244 86.412 123 86.34 122.68 86.34C122.344 86.34 122.028 86.404 121.732 86.532C121.436 86.66 121.172 86.804 120.94 86.964L120.556 86.28C120.828 86.104 121.16 85.936 121.552 85.776C121.952 85.608 122.384 85.524 122.848 85.524C123.56 85.524 124.076 85.744 124.396 86.184C124.716 86.616 124.876 87.196 124.876 87.924V91.5H124.06L123.976 90.804H123.94C123.668 91.028 123.368 91.224 123.04 91.392C122.72 91.56 122.376 91.644 122.008 91.644ZM122.296 90.852C122.576 90.852 122.84 90.784 123.088 90.648C123.336 90.512 123.6 90.32 123.88 90.072V88.452C122.912 88.572 122.232 88.752 121.84 88.992C121.456 89.232 121.264 89.54 121.264 89.916C121.264 90.244 121.364 90.484 121.564 90.636C121.764 90.78 122.008 90.852 122.296 90.852ZM126.926 94.008C126.798 94.008 126.674 93.996 126.554 93.972C126.442 93.948 126.338 93.92 126.242 93.888L126.434 93.108C126.498 93.124 126.57 93.14 126.65 93.156C126.73 93.18 126.806 93.192 126.878 93.192C127.206 93.192 127.478 93.072 127.694 92.832C127.91 92.6 128.078 92.304 128.198 91.944L128.33 91.512L125.99 85.668H127.01L128.198 88.896C128.286 89.144 128.378 89.412 128.474 89.7C128.578 89.988 128.674 90.268 128.762 90.54H128.81C128.898 90.276 128.982 90 129.062 89.712C129.142 89.424 129.222 89.152 129.302 88.896L130.346 85.668H131.306L129.11 91.98C128.974 92.364 128.81 92.708 128.618 93.012C128.434 93.316 128.202 93.556 127.922 93.732C127.65 93.916 127.318 94.008 126.926 94.008ZM134.076 91.644C133.66 91.644 133.264 91.568 132.888 91.416C132.512 91.256 132.184 91.064 131.904 90.84L132.396 90.18C132.652 90.38 132.916 90.548 133.188 90.684C133.46 90.812 133.768 90.876 134.112 90.876C134.496 90.876 134.784 90.788 134.976 90.612C135.168 90.428 135.264 90.212 135.264 89.964C135.264 89.764 135.196 89.596 135.06 89.46C134.932 89.324 134.764 89.212 134.556 89.124C134.356 89.028 134.148 88.94 133.932 88.86C133.66 88.756 133.392 88.64 133.128 88.512C132.864 88.376 132.648 88.204 132.48 87.996C132.312 87.78 132.228 87.508 132.228 87.18C132.228 86.708 132.404 86.316 132.756 86.004C133.116 85.684 133.612 85.524 134.244 85.524C134.604 85.524 134.94 85.588 135.252 85.716C135.564 85.844 135.832 86 136.056 86.184L135.576 86.808C135.376 86.656 135.168 86.532 134.952 86.436C134.736 86.34 134.5 86.292 134.244 86.292C133.876 86.292 133.604 86.376 133.428 86.544C133.26 86.712 133.176 86.908 133.176 87.132C133.176 87.316 133.236 87.468 133.356 87.588C133.476 87.7 133.632 87.8 133.824 87.888C134.016 87.968 134.22 88.052 134.436 88.14C134.716 88.244 134.992 88.364 135.264 88.5C135.536 88.628 135.76 88.804 135.936 89.028C136.12 89.244 136.212 89.536 136.212 89.904C136.212 90.216 136.128 90.504 135.96 90.768C135.8 91.032 135.56 91.244 135.24 91.404C134.928 91.564 134.54 91.644 134.076 91.644Z" fill="#595959"/>
<path d="M27.5645 172.48C27.1899 172.48 26.8709 172.378 26.6074 172.174C26.3439 171.969 26.1426 171.671 26.0034 171.282C25.8642 170.891 25.7946 170.419 25.7946 169.865C25.7946 169.315 25.8642 168.845 26.0034 168.456C26.1442 168.065 26.3464 167.766 26.6099 167.561C26.8751 167.354 27.1932 167.25 27.5645 167.25C27.9357 167.25 28.253 167.354 28.5165 167.561C28.7817 167.766 28.9838 168.065 29.123 168.456C29.2639 168.845 29.3343 169.315 29.3343 169.865C29.3343 170.419 29.2647 170.891 29.1255 171.282C28.9863 171.671 28.785 171.969 28.5215 172.174C28.258 172.378 27.939 172.48 27.5645 172.48ZM27.5645 171.933C27.9357 171.933 28.224 171.754 28.4295 171.396C28.635 171.038 28.7377 170.528 28.7377 169.865C28.7377 169.424 28.6905 169.049 28.5961 168.739C28.5033 168.429 28.369 168.193 28.1934 168.031C28.0194 167.868 27.8097 167.787 27.5645 167.787C27.1966 167.787 26.909 167.968 26.7019 168.331C26.4947 168.693 26.3912 169.204 26.3912 169.865C26.3912 170.306 26.4376 170.68 26.5304 170.989C26.6232 171.297 26.7566 171.531 26.9306 171.692C27.1062 171.853 27.3175 171.933 27.5645 171.933Z" fill="#595959"/>
<path d="M20.8363 143.959V149.05H20.2198V144.605H20.19L18.9471 145.431V144.804L20.2198 143.959H20.8363ZM23.9609 149.12C23.5864 149.12 23.2674 149.018 23.0039 148.814C22.7404 148.608 22.5391 148.311 22.3999 147.921C22.2607 147.53 22.1911 147.058 22.1911 146.504C22.1911 145.954 22.2607 145.484 22.3999 145.095C22.5407 144.704 22.7429 144.406 23.0064 144.2C23.2715 143.993 23.5897 143.889 23.9609 143.889C24.3321 143.889 24.6495 143.993 24.913 144.2C25.1781 144.406 25.3803 144.704 25.5195 145.095C25.6604 145.484 25.7308 145.954 25.7308 146.504C25.7308 147.058 25.6612 147.53 25.522 147.921C25.3828 148.311 25.1815 148.608 24.918 148.814C24.6545 149.018 24.3355 149.12 23.9609 149.12ZM23.9609 148.573C24.3321 148.573 24.6205 148.394 24.826 148.036C25.0315 147.678 25.1342 147.167 25.1342 146.504C25.1342 146.064 25.087 145.688 24.9925 145.378C24.8997 145.069 24.7655 144.832 24.5898 144.67C24.4158 144.508 24.2062 144.426 23.9609 144.426C23.593 144.426 23.3055 144.608 23.0984 144.971C22.8912 145.332 22.7876 145.843 22.7876 146.504C22.7876 146.945 22.834 147.32 22.9268 147.628C23.0196 147.936 23.1531 148.171 23.3271 148.332C23.5027 148.492 23.714 148.573 23.9609 148.573ZM28.3359 149.12C27.9614 149.12 27.6424 149.018 27.3789 148.814C27.1154 148.608 26.9141 148.311 26.7749 147.921C26.6357 147.53 26.5661 147.058 26.5661 146.504C26.5661 145.954 26.6357 145.484 26.7749 145.095C26.9157 144.704 27.1179 144.406 27.3814 144.2C27.6465 143.993 27.9647 143.889 28.3359 143.889C28.7071 143.889 29.0245 143.993 29.288 144.2C29.5531 144.406 29.7553 144.704 29.8945 145.095C30.0354 145.484 30.1058 145.954 30.1058 146.504C30.1058 147.058 30.0362 147.53 29.897 147.921C29.7578 148.311 29.5565 148.608 29.293 148.814C29.0295 149.018 28.7105 149.12 28.3359 149.12ZM28.3359 148.573C28.7071 148.573 28.9955 148.394 29.201 148.036C29.4065 147.678 29.5092 147.167 29.5092 146.504C29.5092 146.064 29.462 145.688 29.3675 145.378C29.2747 145.069 29.1405 144.832 28.9648 144.67C28.7908 144.508 28.5812 144.426 28.3359 144.426C27.968 144.426 27.6805 144.608 27.4734 144.971C27.2662 145.332 27.1626 145.843 27.1626 146.504C27.1626 146.945 27.209 147.32 27.3018 147.628C27.3946 147.936 27.5281 148.171 27.7021 148.332C27.8777 148.492 28.089 148.573 28.3359 148.573Z" fill="#595959"/>
<path d="M19.0465 122.939V122.491L20.7269 120.652C20.9241 120.436 21.0865 120.249 21.2141 120.09C21.3417 119.929 21.4362 119.778 21.4975 119.638C21.5605 119.495 21.592 119.346 21.592 119.19C21.592 119.011 21.5489 118.856 21.4627 118.725C21.3782 118.594 21.2622 118.493 21.1147 118.422C20.9672 118.351 20.8015 118.315 20.6175 118.315C20.422 118.315 20.2513 118.356 20.1055 118.437C19.9613 118.516 19.8494 118.628 19.7699 118.773C19.692 118.917 19.6531 119.086 19.6531 119.28H19.0664C19.0664 118.981 19.1352 118.719 19.2727 118.494C19.4103 118.269 19.5975 118.093 19.8345 117.967C20.0732 117.841 20.3408 117.778 20.6374 117.778C20.9357 117.778 21.2 117.841 21.4304 117.967C21.6607 118.093 21.8414 118.263 21.9723 118.477C22.1032 118.69 22.1687 118.928 22.1687 119.19C22.1687 119.377 22.1347 119.561 22.0668 119.74C22.0005 119.917 21.8845 120.115 21.7188 120.334C21.5547 120.551 21.3268 120.816 21.0352 121.129L19.8917 122.352V122.392H22.2582V122.939H19.0465ZM24.9453 123.008C24.5708 123.008 24.2518 122.906 23.9883 122.703C23.7248 122.497 23.5234 122.2 23.3842 121.81C23.245 121.419 23.1754 120.947 23.1754 120.393C23.1754 119.843 23.245 119.373 23.3842 118.984C23.5251 118.593 23.7273 118.294 23.9908 118.089C24.2559 117.882 24.5741 117.778 24.9453 117.778C25.3165 117.778 25.6339 117.882 25.8974 118.089C26.1625 118.294 26.3647 118.593 26.5039 118.984C26.6448 119.373 26.7152 119.843 26.7152 120.393C26.7152 120.947 26.6456 121.419 26.5064 121.81C26.3672 122.2 26.1658 122.497 25.9023 122.703C25.6388 122.906 25.3198 123.008 24.9453 123.008ZM24.9453 122.461C25.3165 122.461 25.6049 122.282 25.8104 121.925C26.0159 121.567 26.1186 121.056 26.1186 120.393C26.1186 119.952 26.0714 119.577 25.9769 119.267C25.8841 118.957 25.7499 118.721 25.5742 118.559C25.4002 118.396 25.1906 118.315 24.9453 118.315C24.5774 118.315 24.2899 118.497 24.0827 118.86C23.8756 119.221 23.772 119.732 23.772 120.393C23.772 120.834 23.8184 121.209 23.9112 121.517C24.004 121.825 24.1374 122.06 24.3114 122.22C24.4871 122.381 24.6984 122.461 24.9453 122.461ZM29.3203 123.008C28.9458 123.008 28.6268 122.906 28.3633 122.703C28.0998 122.497 27.8984 122.2 27.7592 121.81C27.62 121.419 27.5504 120.947 27.5504 120.393C27.5504 119.843 27.62 119.373 27.7592 118.984C27.9001 118.593 28.1023 118.294 28.3658 118.089C28.6309 117.882 28.9491 117.778 29.3203 117.778C29.6915 117.778 30.0089 117.882 30.2724 118.089C30.5375 118.294 30.7397 118.593 30.8789 118.984C31.0198 119.373 31.0902 119.843 31.0902 120.393C31.0902 120.947 31.0206 121.419 30.8814 121.81C30.7422 122.2 30.5408 122.497 30.2773 122.703C30.0138 122.906 29.6948 123.008 29.3203 123.008ZM29.3203 122.461C29.6915 122.461 29.9799 122.282 30.1854 121.925C30.3909 121.567 30.4936 121.056 30.4936 120.393C30.4936 119.952 30.4464 119.577 30.3519 119.267C30.2591 118.957 30.1249 118.721 29.9492 118.559C29.7752 118.396 29.5656 118.315 29.3203 118.315C28.9524 118.315 28.6649 118.497 28.4577 118.86C28.2506 119.221 28.147 119.732 28.147 120.393C28.147 120.834 28.1934 121.209 28.2862 121.517C28.379 121.825 28.5124 122.06 28.6864 122.22C28.8621 122.381 29.0734 122.461 29.3203 122.461Z" fill="#595959"/>
<path d="M69.3027 189.827H64.2118V186.775H64.7587V189.211H66.4789V187.004H67.0257V189.211H69.3027V189.827ZM69.3027 185.719H64.2118V182.647H64.7587V185.103H66.4789V182.806H67.0257V185.103H68.7559V182.607H69.3027V185.719ZM69.3027 181.536H64.2118V179.756C64.2118 179.401 64.2731 179.109 64.3958 178.878C64.5167 178.648 64.68 178.476 64.8855 178.364C65.0893 178.251 65.3155 178.195 65.5641 178.195C65.7828 178.195 65.9635 178.234 66.106 178.311C66.2485 178.388 66.3612 178.489 66.4441 178.615C66.5269 178.739 66.5882 178.874 66.628 179.02H66.6777C66.6877 178.864 66.7424 178.707 66.8418 178.55C66.9412 178.393 67.0837 178.261 67.2694 178.155C67.455 178.049 67.682 177.996 67.9505 177.996C68.2057 177.996 68.4352 178.054 68.639 178.17C68.8429 178.286 69.0044 178.469 69.1238 178.719C69.2431 178.969 69.3027 179.295 69.3027 179.696V181.536ZM68.7559 180.919V179.696C68.7559 179.293 68.678 179.007 68.5222 178.838C68.3648 178.668 68.1742 178.582 67.9505 178.582C67.7781 178.582 67.619 178.626 67.4732 178.714C67.3257 178.802 67.208 178.927 67.1202 179.089C67.0307 179.252 66.986 179.444 66.986 179.666V180.919H68.7559ZM66.449 180.919V179.776C66.449 179.59 66.4126 179.423 66.3397 179.273C66.2667 179.123 66.164 179.003 66.0314 178.915C65.8989 178.826 65.7431 178.781 65.5641 178.781C65.3404 178.781 65.1506 178.859 64.9949 179.015C64.8374 179.171 64.7587 179.418 64.7587 179.756V180.919H66.449Z" fill="#595959"/>
<path d="M85.0341 191.464V190.728L89.2599 188.998V188.939L85.0341 187.209V186.473H90.125V187.049H86.2571V187.099L90.125 188.69V189.247L86.2571 190.838V190.888H90.125V191.464H85.0341ZM90.125 185.028V185.674L85.0341 183.805V183.168L90.125 181.299V181.945L85.8395 183.467V183.507L90.125 185.028ZM88.1364 184.789V182.184H88.6832V184.789H88.1364ZM90.125 180.506H85.0341V178.786C85.0341 178.388 85.102 178.062 85.2379 177.807C85.3722 177.551 85.5569 177.363 85.7923 177.24C86.0276 177.117 86.2952 177.056 86.5952 177.056C86.8951 177.056 87.1611 177.117 87.3931 177.24C87.6251 177.363 87.8074 177.551 87.94 177.804C88.0709 178.058 88.1364 178.382 88.1364 178.776V180.168H87.5795V178.796C87.5795 178.524 87.5398 178.305 87.4602 178.14C87.3807 177.972 87.268 177.851 87.1222 177.777C86.9747 177.701 86.799 177.662 86.5952 177.662C86.3913 177.662 86.2132 177.701 86.0607 177.777C85.9083 177.853 85.7906 177.975 85.7077 178.142C85.6232 178.31 85.581 178.531 85.581 178.806V179.89H90.125V180.506ZM87.8381 178.11L90.125 176.857V177.573L87.8381 178.806V178.11Z" fill="#595959"/>
<path d="M110.955 190.091V190.737L105.864 188.868V188.232L110.955 186.362V187.009L106.67 188.53V188.57L110.955 190.091ZM108.966 189.852V187.247H109.513V189.852H108.966ZM110.955 185.569H105.864V183.849C105.864 183.45 105.936 183.123 106.08 182.87C106.223 182.615 106.416 182.426 106.66 182.303C106.903 182.18 107.175 182.119 107.475 182.119C107.775 182.119 108.048 182.18 108.293 182.303C108.538 182.424 108.734 182.611 108.879 182.865C109.024 183.118 109.096 183.443 109.096 183.839V185.072H108.549V183.859C108.549 183.586 108.502 183.366 108.407 183.2C108.313 183.035 108.185 182.915 108.024 182.84C107.862 182.764 107.679 182.726 107.475 182.726C107.271 182.726 107.089 182.764 106.928 182.84C106.767 182.915 106.641 183.036 106.55 183.203C106.457 183.37 106.411 183.592 106.411 183.869V184.953H110.955V185.569ZM110.955 181.126H105.864V179.406C105.864 179.008 105.932 178.682 106.068 178.427C106.202 178.171 106.387 177.982 106.622 177.86C106.858 177.737 107.125 177.676 107.425 177.676C107.725 177.676 107.991 177.737 108.223 177.86C108.455 177.982 108.637 178.17 108.77 178.424C108.901 178.678 108.966 179.002 108.966 179.396V180.788H108.41V179.416C108.41 179.144 108.37 178.925 108.29 178.76C108.211 178.592 108.098 178.471 107.952 178.397C107.805 178.32 107.629 178.282 107.425 178.282C107.221 178.282 107.043 178.32 106.891 178.397C106.738 178.473 106.621 178.595 106.538 178.762C106.453 178.929 106.411 179.151 106.411 179.426V180.51H110.955V181.126ZM108.668 178.73L110.955 177.477V178.193L108.668 179.426V178.73Z" fill="#595959"/>
<path d="M126.692 190.733V189.997L130.918 188.267V188.208L126.692 186.477V185.742H131.783V186.318H127.915V186.368L131.783 187.959V188.516L127.915 190.107V190.156H131.783V190.733H126.692ZM131.783 184.297V184.943L126.692 183.074V182.437L131.783 180.568V181.214L127.498 182.736V182.775L131.783 184.297ZM129.795 184.058V181.453H130.341V184.058H129.795ZM126.692 180.732V180.026L129.069 178.614V178.555L126.692 177.143V176.437L129.685 178.276H131.783V178.893H129.685L126.692 180.732Z" fill="#595959"/>
<path d="M147.528 189.054V188.438H151.167C151.492 188.438 151.768 188.497 151.995 188.617C152.222 188.736 152.395 188.904 152.512 189.121C152.63 189.338 152.689 189.594 152.689 189.889C152.689 190.168 152.638 190.416 152.537 190.633C152.434 190.85 152.289 191.02 152.1 191.145C151.911 191.269 151.686 191.331 151.426 191.331V190.725C151.57 190.725 151.696 190.689 151.804 190.618C151.91 190.545 151.993 190.445 152.052 190.319C152.112 190.193 152.142 190.05 152.142 189.889C152.142 189.712 152.105 189.561 152.03 189.437C151.955 189.313 151.846 189.218 151.702 189.154C151.556 189.087 151.378 189.054 151.167 189.054H147.528ZM147.528 183.861V183.245H150.899C151.247 183.245 151.558 183.327 151.831 183.491C152.103 183.653 152.318 183.883 152.475 184.18C152.631 184.476 152.709 184.824 152.709 185.224C152.709 185.623 152.631 185.971 152.475 186.268C152.318 186.564 152.103 186.795 151.831 186.959C151.558 187.121 151.247 187.202 150.899 187.202H147.528V186.586H150.849C151.098 186.586 151.319 186.531 151.513 186.422C151.705 186.312 151.857 186.157 151.968 185.954C152.077 185.751 152.132 185.507 152.132 185.224C152.132 184.94 152.077 184.697 151.968 184.493C151.857 184.289 151.705 184.133 151.513 184.025C151.319 183.916 151.098 183.861 150.849 183.861H147.528ZM147.528 177.977H152.619V178.573L148.622 181.348V181.397H152.619V182.014H147.528V181.417L151.535 178.633V178.583H147.528V177.977Z" fill="#595959"/>
<path d="M168.352 187.895V187.279H171.992C172.316 187.279 172.592 187.339 172.819 187.458C173.046 187.577 173.219 187.745 173.336 187.963C173.454 188.18 173.513 188.436 173.513 188.731C173.513 189.009 173.462 189.257 173.361 189.474C173.259 189.691 173.113 189.862 172.924 189.986C172.735 190.11 172.51 190.172 172.25 190.172V189.566C172.394 189.566 172.52 189.53 172.628 189.459C172.734 189.386 172.817 189.287 172.877 189.161C172.936 189.035 172.966 188.891 172.966 188.731C172.966 188.553 172.929 188.403 172.854 188.278C172.78 188.154 172.67 188.06 172.526 187.995C172.38 187.929 172.202 187.895 171.992 187.895H168.352ZM168.352 182.703V182.086H171.723C172.071 182.086 172.382 182.168 172.655 182.332C172.927 182.495 173.142 182.724 173.299 183.021C173.455 183.317 173.533 183.665 173.533 184.065C173.533 184.464 173.455 184.812 173.299 185.109C173.142 185.406 172.927 185.636 172.655 185.8C172.382 185.962 172.071 186.044 171.723 186.044H168.352V185.427H171.673C171.922 185.427 172.143 185.372 172.337 185.263C172.529 185.154 172.681 184.998 172.792 184.796C172.901 184.592 172.956 184.348 172.956 184.065C172.956 183.781 172.901 183.538 172.792 183.334C172.681 183.13 172.529 182.974 172.337 182.867C172.143 182.757 171.922 182.703 171.673 182.703H168.352ZM173.443 180.855H168.352V180.239H172.896V177.872H173.443V180.855Z" fill="#595959"/>
<path d="M190.459 187.167C190.207 187.197 190.012 187.318 189.873 187.53C189.733 187.742 189.664 188.002 189.664 188.311C189.664 188.536 189.7 188.733 189.773 188.902C189.846 189.07 189.946 189.201 190.074 189.295C190.201 189.388 190.346 189.434 190.509 189.434C190.645 189.434 190.762 189.402 190.859 189.337C190.955 189.271 191.036 189.186 191.1 189.084C191.163 188.981 191.216 188.873 191.257 188.761C191.297 188.648 191.329 188.544 191.354 188.45L191.493 187.933C191.528 187.8 191.576 187.653 191.637 187.49C191.699 187.326 191.782 187.17 191.888 187.021C191.993 186.87 192.127 186.745 192.291 186.648C192.455 186.55 192.657 186.501 192.895 186.501C193.17 186.501 193.419 186.573 193.641 186.717C193.863 186.86 194.04 187.069 194.17 187.344C194.301 187.617 194.367 187.949 194.367 188.34C194.367 188.705 194.308 189.021 194.19 189.288C194.073 189.553 193.909 189.762 193.698 189.914C193.488 190.065 193.243 190.15 192.965 190.17V189.534C193.157 189.517 193.316 189.452 193.442 189.34C193.566 189.225 193.659 189.081 193.721 188.907C193.78 188.732 193.81 188.543 193.81 188.34C193.81 188.105 193.772 187.894 193.696 187.707C193.618 187.519 193.51 187.371 193.373 187.262C193.233 187.152 193.071 187.098 192.885 187.098C192.716 187.098 192.579 187.145 192.473 187.239C192.367 187.334 192.28 187.458 192.214 187.612C192.148 187.766 192.09 187.933 192.04 188.112L191.861 188.738C191.747 189.136 191.584 189.451 191.371 189.683C191.159 189.915 190.882 190.031 190.539 190.031C190.254 190.031 190.005 189.954 189.793 189.8C189.579 189.644 189.413 189.435 189.296 189.173C189.176 188.91 189.117 188.616 189.117 188.291C189.117 187.963 189.176 187.671 189.293 187.416C189.409 187.161 189.568 186.958 189.771 186.809C189.973 186.658 190.202 186.579 190.459 186.571V187.167ZM194.277 185.487H189.186V182.415H189.733V184.871H191.453V182.574H192V184.871H193.73V182.375H194.277V185.487ZM194.277 181.304H189.186V179.584C189.186 179.184 189.259 178.858 189.403 178.604C189.545 178.349 189.738 178.16 189.982 178.037C190.225 177.915 190.497 177.854 190.797 177.854C191.097 177.854 191.37 177.915 191.615 178.037C191.86 178.158 192.056 178.346 192.202 178.599C192.346 178.853 192.418 179.178 192.418 179.574V180.807H191.871V179.594C191.871 179.32 191.824 179.101 191.729 178.935C191.635 178.769 191.507 178.649 191.347 178.574C191.184 178.498 191.001 178.46 190.797 178.46C190.593 178.46 190.411 178.498 190.25 178.574C190.09 178.649 189.964 178.77 189.873 178.937C189.78 179.105 189.733 179.327 189.733 179.604V180.687H194.277V181.304Z" fill="#595959"/>
<path d="M212.556 186.578C213.093 186.578 213.557 186.675 213.948 186.869C214.339 187.063 214.641 187.329 214.853 187.667C215.065 188.005 215.171 188.391 215.171 188.825C215.171 189.26 215.065 189.646 214.853 189.984C214.641 190.322 214.339 190.588 213.948 190.782C213.557 190.976 213.093 191.073 212.556 191.073C212.019 191.073 211.555 190.976 211.164 190.782C210.773 190.588 210.471 190.322 210.259 189.984C210.047 189.646 209.941 189.26 209.941 188.825C209.941 188.391 210.047 188.005 210.259 187.667C210.471 187.329 210.773 187.063 211.164 186.869C211.555 186.675 212.019 186.578 212.556 186.578ZM212.556 187.175C212.115 187.175 211.743 187.249 211.44 187.396C211.137 187.542 210.907 187.74 210.751 187.99C210.596 188.239 210.518 188.517 210.518 188.825C210.518 189.134 210.596 189.413 210.751 189.663C210.907 189.912 211.137 190.11 211.44 190.257C211.743 190.403 212.115 190.476 212.556 190.476C212.997 190.476 213.369 190.403 213.672 190.257C213.975 190.11 214.205 189.912 214.361 189.663C214.517 189.413 214.594 189.134 214.594 188.825C214.594 188.517 214.517 188.239 214.361 187.99C214.205 187.74 213.975 187.542 213.672 187.396C213.369 187.249 212.997 187.175 212.556 187.175ZM211.602 181.445V182.062C211.424 182.098 211.268 182.162 211.134 182.253C211 182.343 210.887 182.452 210.796 182.581C210.703 182.709 210.634 182.85 210.587 183.006C210.541 183.162 210.518 183.324 210.518 183.493C210.518 183.802 210.596 184.081 210.751 184.331C210.907 184.58 211.137 184.778 211.44 184.925C211.743 185.071 212.115 185.144 212.556 185.144C212.997 185.144 213.369 185.071 213.672 184.925C213.975 184.778 214.205 184.58 214.361 184.331C214.517 184.081 214.594 183.802 214.594 183.493C214.594 183.324 214.571 183.162 214.525 183.006C214.478 182.85 214.41 182.709 214.319 182.581C214.226 182.452 214.112 182.343 213.978 182.253C213.842 182.162 213.686 182.098 213.511 182.062V181.445C213.771 181.492 214.004 181.576 214.209 181.699C214.415 181.821 214.589 181.974 214.734 182.156C214.876 182.338 214.985 182.543 215.059 182.77C215.134 182.995 215.171 183.237 215.171 183.493C215.171 183.928 215.065 184.314 214.853 184.652C214.641 184.99 214.339 185.256 213.948 185.45C213.557 185.644 213.093 185.741 212.556 185.741C212.019 185.741 211.555 185.644 211.164 185.45C210.773 185.256 210.471 184.99 210.259 184.652C210.047 184.314 209.941 183.928 209.941 183.493C209.941 183.237 209.978 182.995 210.053 182.77C210.127 182.543 210.237 182.338 210.381 182.156C210.524 181.974 210.698 181.821 210.903 181.699C211.107 181.576 211.34 181.492 211.602 181.445ZM210.558 180.727H210.011V176.909H210.558V178.51H215.102V179.127H210.558V180.727Z" fill="#595959"/>
<path d="M230.841 187.292H235.932V187.889L231.934 190.663V190.713H235.932V191.329H230.841V190.733L234.848 187.949V187.899H230.841V187.292ZM233.386 181.763C233.923 181.763 234.387 181.86 234.778 182.054C235.169 182.248 235.471 182.514 235.683 182.852C235.895 183.19 236.001 183.576 236.001 184.011C236.001 184.445 235.895 184.831 235.683 185.169C235.471 185.507 235.169 185.773 234.778 185.967C234.387 186.161 233.923 186.258 233.386 186.258C232.849 186.258 232.385 186.161 231.994 185.967C231.603 185.773 231.301 185.507 231.089 185.169C230.877 184.831 230.771 184.445 230.771 184.011C230.771 183.576 230.877 183.19 231.089 182.852C231.301 182.514 231.603 182.248 231.994 182.054C232.385 181.86 232.849 181.763 233.386 181.763ZM233.386 182.36C232.945 182.36 232.573 182.434 232.27 182.581C231.967 182.727 231.737 182.925 231.581 183.175C231.426 183.424 231.348 183.702 231.348 184.011C231.348 184.319 231.426 184.598 231.581 184.848C231.737 185.097 231.967 185.295 232.27 185.442C232.573 185.588 232.945 185.661 233.386 185.661C233.827 185.661 234.199 185.588 234.502 185.442C234.806 185.295 235.035 185.097 235.191 184.848C235.347 184.598 235.425 184.319 235.425 184.011C235.425 183.702 235.347 183.424 235.191 183.175C235.035 182.925 234.806 182.727 234.502 182.581C234.199 182.434 233.827 182.36 233.386 182.36ZM230.841 180.757L235.126 179.246V179.186L230.841 177.675V177.029L235.932 178.898V179.534L230.841 181.404V180.757Z" fill="#595959"/>
<path d="M256.756 189.005V190.576H251.665V188.935C251.665 188.441 251.767 188.019 251.971 187.667C252.173 187.316 252.464 187.047 252.843 186.859C253.221 186.672 253.673 186.579 254.2 186.579C254.731 186.579 255.187 186.673 255.57 186.862C255.951 187.051 256.245 187.326 256.45 187.687C256.654 188.048 256.756 188.488 256.756 189.005ZM256.209 189.959V189.044C256.209 188.623 256.128 188.275 255.965 187.998C255.803 187.721 255.572 187.515 255.272 187.379C254.972 187.243 254.615 187.175 254.2 187.175C253.789 187.175 253.436 187.242 253.139 187.376C252.841 187.511 252.612 187.711 252.453 187.978C252.292 188.245 252.212 188.577 252.212 188.975V189.959H256.209ZM256.756 185.544H251.665V182.472H252.212V184.928H253.932V182.631H254.479V184.928H256.209V182.432H256.756V185.544ZM253.256 177.264V177.881C253.079 177.917 252.923 177.981 252.789 178.072C252.654 178.162 252.542 178.271 252.45 178.4C252.358 178.528 252.288 178.67 252.242 178.825C252.195 178.981 252.172 179.143 252.172 179.313C252.172 179.621 252.25 179.9 252.406 180.15C252.561 180.399 252.791 180.597 253.094 180.744C253.398 180.89 253.77 180.963 254.21 180.963C254.651 180.963 255.023 180.89 255.327 180.744C255.63 180.597 255.859 180.399 256.015 180.15C256.171 179.9 256.249 179.621 256.249 179.313C256.249 179.143 256.226 178.981 256.179 178.825C256.133 178.67 256.064 178.528 255.973 178.4C255.88 178.271 255.767 178.162 255.632 178.072C255.496 177.981 255.341 177.917 255.165 177.881V177.264C255.425 177.311 255.658 177.395 255.863 177.518C256.069 177.64 256.244 177.793 256.388 177.975C256.53 178.157 256.639 178.362 256.714 178.589C256.788 178.815 256.825 179.056 256.825 179.313C256.825 179.747 256.719 180.133 256.507 180.471C256.295 180.809 255.994 181.075 255.602 181.269C255.211 181.463 254.747 181.56 254.21 181.56C253.673 181.56 253.209 181.463 252.818 181.269C252.427 181.075 252.126 180.809 251.914 180.471C251.701 180.133 251.595 179.747 251.595 179.313C251.595 179.056 251.633 178.815 251.707 178.589C251.782 178.362 251.891 178.157 252.035 177.975C252.178 177.793 252.352 177.64 252.557 177.518C252.761 177.395 252.994 177.311 253.256 177.264Z" fill="#595959"/>
<path d="M272.493 188.301V187.684H276.132C276.457 187.684 276.733 187.744 276.96 187.863C277.187 187.982 277.359 188.151 277.477 188.368C277.595 188.585 277.654 188.841 277.654 189.136C277.654 189.414 277.603 189.662 277.502 189.879C277.399 190.096 277.253 190.267 277.064 190.391C276.876 190.515 276.651 190.577 276.391 190.577V189.971C276.535 189.971 276.661 189.935 276.769 189.864C276.875 189.791 276.958 189.692 277.017 189.566C277.077 189.44 277.107 189.296 277.107 189.136C277.107 188.958 277.069 188.808 276.995 188.683C276.92 188.559 276.811 188.465 276.667 188.4C276.521 188.334 276.343 188.301 276.132 188.301H272.493ZM277.584 186.24V186.886L272.493 185.017V184.38L277.584 182.511V183.157L273.298 184.679V184.718L277.584 186.24ZM275.595 186.001V183.396H276.142V186.001H275.595ZM272.493 177.681H277.584V178.278L273.587 181.052V181.102H277.584V181.718H272.493V181.122L276.5 178.337V178.288H272.493V177.681Z" fill="#595959"/>
<path d="M43.3817 188.301V187.684H47.021C47.3458 187.684 47.6217 187.744 47.8487 187.863C48.0758 187.982 48.2481 188.151 48.3658 188.368C48.4834 188.585 48.5423 188.841 48.5423 189.136C48.5423 189.414 48.4917 189.662 48.3906 189.879C48.2879 190.096 48.142 190.267 47.9531 190.391C47.7642 190.515 47.5397 190.577 47.2795 190.577V189.971C47.4237 189.971 47.5496 189.935 47.6573 189.864C47.7634 189.791 47.8462 189.692 47.9059 189.566C47.9656 189.44 47.9954 189.296 47.9954 189.136C47.9954 188.958 47.9581 188.808 47.8835 188.683C47.8089 188.559 47.6996 188.465 47.5554 188.4C47.4096 188.334 47.2314 188.301 47.021 188.301H43.3817ZM48.4727 186.24V186.886L43.3817 185.017V184.38L48.4727 182.511V183.157L44.1871 184.679V184.718L48.4727 186.24ZM46.484 186.001V183.396H47.0309V186.001H46.484ZM43.3817 177.681H48.4727V178.278L44.4755 181.052V181.102H48.4727V181.718H43.3817V181.122L47.3888 178.337V178.288H43.3817V177.681Z" fill="#595959"/>
<path d="M280.828 121.66H35.2461" stroke="#E5E1DF" stroke-width="0.9675" stroke-miterlimit="10"/>
<path d="M35.2461 172.161V98.625" stroke="#E5E1DF" stroke-width="0.9675" stroke-miterlimit="10"/>
<path d="M280.834 146.741H35.2461" stroke="#E5E1DF" stroke-width="0.9675" stroke-miterlimit="10"/>
<path d="M280.328 172.161H34.7402" stroke="#E5E1DF" stroke-width="0.9675" stroke-miterlimit="10"/>
<path opacity="0.3" d="M272.754 161.867L252.713 144.154L231.894 160.061L210.564 164.972L189.876 147.518L169.058 152.558L149.28 161.996L128.462 102.653L107.644 142.219L86.9607 148.035L66.1426 127.734L45.3301 129.028V172.161H272.754V161.867Z" fill="#A2CDF9"/>
<path d="M272.754 161.867L252.713 144.154L231.894 160.061L210.564 164.972L189.876 147.518L169.058 152.558L149.28 161.996L128.462 102.653L107.644 142.219L86.9607 148.035L66.1426 127.734L45.3301 129.028" stroke="#A2CDF9" stroke-width="1.92937" stroke-linecap="round" stroke-linejoin="round"/>
</svg>
