<svg width="32" height="32" viewBox="0 0 32 32" fill="none" xmlns="http://www.w3.org/2000/svg">
<path d="M26.0326 25.8208C26.3161 25.5191 26.7912 25.5044 27.0931 25.7876C27.3948 26.0711 27.4097 26.5463 27.1263 26.8481L24.0736 30.0991C23.6171 30.5853 22.8466 30.5924 22.3812 30.1147L20.6234 28.3091C20.3348 28.0123 20.3415 27.5384 20.6381 27.2495C20.9347 26.9607 21.4086 26.9667 21.6976 27.2632L23.2142 28.8218L26.0326 25.8208ZM14.0629 3.7124C14.7602 3.01538 15.7556 2.8 16.6342 3.06006L16.8715 3.14209C16.9497 3.17379 17.0276 3.21039 17.1039 3.25049L17.2728 3.34717C17.4377 3.45051 17.5915 3.57303 17.7308 3.7124L28.0804 14.063C29.0296 15.0124 29.0886 16.5141 28.2582 17.5327L28.0804 17.731C27.8807 17.9307 27.6555 18.0895 27.4164 18.2104V22.6675C27.416 23.0814 27.0804 23.4175 26.6664 23.4175C26.2526 23.4173 25.9168 23.0812 25.9164 22.6675V18.4663C25.3667 18.3962 24.8347 18.1531 24.4125 17.731L15.8969 9.21533L7.38123 17.731C7.01211 18.1001 6.55867 18.3321 6.08337 18.4321V25.8989C6.08374 26.6453 6.68931 27.2505 7.43689 27.2505H17.8412C18.2554 27.2505 18.5912 27.5863 18.5912 28.0005C18.591 28.4145 18.2552 28.7505 17.8412 28.7505H7.43689C5.862 28.7505 4.58374 27.4748 4.58337 25.8989V18.3022C4.3452 18.207 4.11745 18.0774 3.91052 17.9087L3.71326 17.731C2.7004 16.7181 2.7004 15.0758 3.71326 14.063L5.91638 11.8589V5.75439C5.91638 5.10801 6.44094 4.5837 7.08728 4.5835H10.2455C10.892 4.5835 11.4164 5.10788 11.4164 5.75439V6.35889L14.0629 3.7124ZM16.7445 22.5649C17.1587 22.565 17.4945 22.9008 17.4945 23.3149C17.4944 23.729 17.1586 24.0649 16.7445 24.0649H11.2767C10.8626 24.0649 10.5269 23.729 10.5267 23.3149C10.5267 22.9007 10.8625 22.5649 11.2767 22.5649H16.7445ZM20.5297 17.8979C20.9438 17.898 21.2796 18.2338 21.2797 18.6479C21.2797 19.0621 20.9438 19.3979 20.5297 19.3979H11.2767C10.8625 19.3979 10.5267 19.0622 10.5267 18.6479C10.5268 18.2338 10.8625 17.8979 11.2767 17.8979H20.5297ZM16.2084 4.49756C15.8364 4.38744 15.417 4.48031 15.1234 4.77393L4.7738 15.1235C4.34673 15.5506 4.34673 16.2433 4.7738 16.6704C5.20092 17.097 5.89377 17.0973 6.32068 16.6704L15.8969 7.09326L25.473 16.6704C25.9 17.0971 26.5929 17.0972 27.0199 16.6704C27.4469 16.2434 27.4467 15.5506 27.0199 15.1235L16.6703 4.77393C16.5903 4.69391 16.5008 4.62767 16.4056 4.57764C16.3422 4.54427 16.276 4.51759 16.2084 4.49756ZM7.41638 10.3589L9.91638 7.85889V6.0835H7.41638V10.3589Z" fill="#8046F2"/>
</svg>
